<?xml version="1.0" encoding="utf-8"?>
<!-- Generator: Adobe Illustrator 24.3.0, SVG Export Plug-In . SVG Version: 6.00 Build 0)  -->
<svg version="1.1" id="Capa_1" xmlns="http://www.w3.org/2000/svg" xmlns:xlink="http://www.w3.org/1999/xlink" x="0px" y="0px"
	 viewBox="0 0 1080 1080" style="enable-background:new 0 0 1080 1080;" xml:space="preserve">
<style type="text/css">
	.st0{fill:#EEC575;}
	.st1{fill:#EC9B5C;}
	.st2{fill:#7EC3B0;}
	.st3{fill:#C0D49F;}
	.st4{fill:#C5E4D5;}
	.st5{fill:#9E9ABF;}
	.st6{clip-path:url(#SVGID_2_);}
	.st7{fill:#8CB3A1;}
	.st8{clip-path:url(#SVGID_4_);}
	.st9{fill:none;stroke:#000000;stroke-width:3;stroke-linecap:round;stroke-linejoin:round;stroke-miterlimit:10;}
	.st10{fill:#FFFFFF;}
	.st11{fill:#777691;}
	.st12{fill:#67A390;}
	.st13{clip-path:url(#SVGID_6_);}
	.st14{clip-path:url(#SVGID_8_);}
	.st15{stroke:#000000;stroke-miterlimit:10;}
	.st16{clip-path:url(#SVGID_10_);}
	.st17{clip-path:url(#SVGID_12_);}
	.st18{clip-path:url(#SVGID_14_);}
	.st19{clip-path:url(#SVGID_16_);}
	.st20{fill-rule:evenodd;clip-rule:evenodd;fill:#EC9B5C;}
	.st21{fill-rule:evenodd;clip-rule:evenodd;fill:#7EC3B0;}
	.st22{fill-rule:evenodd;clip-rule:evenodd;fill:#EEC575;}
	.st23{fill-rule:evenodd;clip-rule:evenodd;fill:#9E9ABF;}
	.st24{fill-rule:evenodd;clip-rule:evenodd;}
	.st25{fill-rule:evenodd;clip-rule:evenodd;fill:#FFFFFF;}
</style>
<g>
	<g>
		<g>
			<g>
				<g>
					<path class="st0" d="M205.6,522.8c-1.4,1.5-3,2.8-4.9,3.8c-1.9,1-3.8,1.7-5.7,1.9c-1.9,0.2-3.7,0-5.4-0.7
						c-1.7-0.7-3.1-2-4.2-3.9c-0.7-1.3-1.4-2.5-2.2-3.7c-0.8-1.2-1.6-2.4-2.5-3.5c-1-1.2-2.3-2.2-3.9-3.1c-2.7-1.8-5.4-1.9-8.2-0.4
						c-1.4,0.6-2.4,1.5-3.1,2.5c-0.6,1-1,2.1-1,3.2c0,1.1,0.2,2.2,0.7,3.3c0.5,1.1,1.3,2,2.4,2.7c2,1.3,4,2.5,6.1,3.7
						c2,1.2,4.1,2.4,6.2,3.5c2.5,1.4,5.1,2.8,7.8,4.1c2.7,1.3,5.2,2.6,7.5,4.1c4.5,2.8,7.8,6,9.8,9.6c2,3.6,3,7.7,2.8,12.2
						c-0.2,3.3-1,6.3-2.3,9.1c-1.3,2.8-3.4,5.3-6.2,7.7c-4.8,3.9-10.1,6.5-15.8,7.7c-5.7,1.2-11.9,1.3-18.5,0.2
						c-5.2-0.9-9.9-2.4-14.1-4.5c-4.2-2.1-8.2-4.7-11.7-7.7c-2.1-1.8-3.8-3.8-5.1-5.9c-1.3-2.1-2.3-4.4-3-6.9
						c-0.6-2.4-0.1-4.8,1.5-7.2c1.3-1.9,2.9-3.5,4.7-4.9c1.8-1.4,4.2-2.3,7-2.8c2.3-0.4,4.5-0.3,6.6,0.4c2.1,0.7,3.7,1.8,4.8,3.4
						c0.8,1,1.5,2.1,2.1,3.1c0.6,1,1.2,2.1,1.8,3.2c1.1,1.9,2.7,3.5,4.9,4.7c2.1,1.2,4.3,2,6.4,2.4c2.1,0.4,4.1,0.2,5.8-0.5
						c1.7-0.7,2.8-2,3.1-4c0.2-1.4-0.2-3-1.1-4.6c-0.9-1.6-2.4-3-4.3-4.1c-2.3-1.3-4.6-2.6-6.9-3.8c-2.3-1.3-4.6-2.5-7-3.6
						c-7.6-3.5-14.2-8-19.9-13.5c-2.9-3.4-4.6-6.9-5-10.6c-0.4-3.7,0.1-7.3,1.6-10.7c1.5-3.4,3.9-6.5,7.3-9.1
						c3.4-2.6,7.5-4.5,12.4-5.7c5.5-1.3,10.8-2,15.9-2c5.1-0.1,9.8,0.6,14,1.9c3.1,1,6.4,2.6,9.8,4.5c3.4,2,6.3,4.3,8.6,6.9
						c2.3,2.6,3.7,5.4,4.2,8.4C209.7,516.7,208.5,519.8,205.6,522.8z"/>
				</g>
			</g>
			<g>
				<g>
					<path class="st1" d="M249.6,576.3c0,2-0.1,4-0.4,5.9c-0.5,2.8-2.3,4.3-5.5,4.7c-0.9,0.1-2,0.2-3.4,0.2
						c-1.3,0.1-2.7,0.2-4.1,0.2c-1.4,0.1-2.7,0.1-4,0.1c-1.3,0-2.4,0-3.3-0.1c-3.5-0.2-6-1-7.6-2.5c-1.6-1.5-2.4-3.6-2.4-6.4v-9
						c0.1-5.3,0.1-10.7,0.1-16.4c0-5.7,0-11.4,0.1-17.2c0.1-5.8,0.2-11.5,0.4-17.2c0.1-5.7,0.4-11.1,0.7-16.4c0-0.7,0-1.5,0-2.2
						c0-0.8,0-1.5,0.1-2.3c0.1-1.4,0.6-2.6,1.6-3.4c0.9-0.8,2.3-1.3,4.1-1.3c1.2,0,2.6,0,4.3-0.1c1.6,0,3.3,0,5,0
						c1.7,0,3.3,0.1,4.9,0.1c1.6,0,3,0.1,4.2,0.2c2,0.2,3.4,0.6,4.1,1.4c0.7,0.8,1.2,1.9,1.3,3.5c0.2,1.3,0.2,2.5,0.1,3.8
						c-0.1,1.2-0.1,2.5-0.1,3.9c0,10.5,0,19.6,0,27.2c0,7.6,0,14.1,0,19.5c0,5.4,0,10-0.1,13.7C249.6,570,249.6,573.4,249.6,576.3z"
						/>
				</g>
			</g>
			<g>
				<path class="st2" d="M335.8,548.1c-1.4,2-2.8,4-4.1,5.9c-1.3,1.9-2.7,3.9-4.1,5.9c-0.2,0.2-0.4,0.5-0.6,0.7
					c-0.2,0.2-0.4,0.4-0.4,0.7c-2.2,3.8-5.8,5.6-10.9,5.4c-1.6-0.2-3.2-0.2-4.7-0.1c-1.5,0.1-3.1,0.1-4.7,0.1
					c-1.7-0.1-3.1-0.5-4.2-1.1c-1.1-0.7-2-1.6-2.8-2.7c-1.6-2.3-2.9-4.6-4-6.9c-1-2.3-2.3-4.4-3.8-6.5c-0.8-1.1-1.5-1.7-2-1.8
					c-0.5-0.1-0.8,1-0.8,3.1v26.6v1.2c0,3.5-0.8,5.9-2.3,7.2c-1.5,1.3-4.5,2.1-8.8,2.2c-2,0.1-3.9,0.1-5.8-0.1
					c-1.9-0.1-3.8-0.3-5.7-0.4c-2.3-0.3-4.1-1.1-5.4-2.4c-1.3-1.3-1.9-3-1.9-5c0-1.2,0-2.7,0.1-4.4c0.1-1.7,0.2-3.5,0.3-5.3
					c0.1-1.8,0.2-3.5,0.2-5.3c0-1.7,0.1-3.2,0.1-4.5c0-10.3,0-20.3-0.1-30.1c-0.1-9.8-0.1-19.9-0.1-30.2v-0.8c0.1-2.4,0.7-4,1.7-5
					c1-0.9,3-1.5,5.9-1.6c2.1-0.1,4.2-0.1,6.4,0.1c2.1,0.1,4.3,0.3,6.5,0.4c1.6,0.2,2.9,0.6,4,1.3c1.1,0.7,2,1.6,2.8,2.7
					c3.6,4.8,7.1,9.5,10.6,14.1c3.4,4.6,6.9,9.3,10.2,14.1c0.2,0.3,0.4,0.6,0.7,0.9c0.3,0.3,0.6,0.6,0.9,0.9c1.2,1.4,2.2,2,3.1,2
					c0.8,0,1.9-0.7,3.1-2c0.4-0.4,0.8-0.8,1.2-1.3c0.4-0.4,0.7-0.9,1-1.4c2.3-3.7,4.6-7.2,6.9-10.5c2.3-3.3,4.6-6.8,6.9-10.5
					c0.8-1.1,1.5-2.2,2.2-3.3c0.6-1.1,1.4-2.2,2.2-3.3c0.8-1.4,2-2.4,3.6-3c1.6-0.6,3.2-0.9,4.9-1.1c1.9-0.2,3.8-0.3,5.8-0.3
					c1.9,0,3.9,0,5.9,0.2c5.4,0.4,8.5,2.8,9.3,7.2c0.2,0.9,0.3,1.8,0.4,2.8c0.1,1,0.1,1.9,0,2.8c-0.1,7.2-0.2,14.2-0.3,20.9
					c-0.1,6.8-0.1,13.8-0.1,21.1c0,2.5,0,5.1,0.1,8c0,2.9,0.1,5.8,0.1,8.7c0,2.9,0.1,5.8,0.1,8.7c0,2.9,0.1,5.5,0.1,8
					c0.1,2.3-0.3,3.9-1.2,4.7c-0.9,0.8-2.8,1.4-5.8,1.6c-2,0.2-3.9,0.3-5.8,0.4c-1.9,0.1-3.8,0.1-5.8,0.1c-3.2-0.1-5.4-0.7-6.6-1.7
					c-1.2-1.1-1.9-2.9-2.1-5.4c-0.1-2.2-0.2-4.7-0.3-7.4c-0.1-2.7-0.2-5.4-0.3-8.2c-0.1-2.8-0.2-5.5-0.4-8.1
					c-0.1-2.7-0.3-5.2-0.4-7.5c0-0.2,0-0.4-0.1-0.6c-0.1-0.2-0.1-0.4-0.1-0.6c-0.2,0-0.3,0-0.4-0.1
					C336.1,548.1,336,548.1,335.8,548.1z"/>
			</g>
			<g>
				<g>
					<path class="st3" d="M463.9,536.8c0,6.8-0.9,12.9-2.6,18.4c-1.7,5.5-4.5,10.7-8.3,15.6c-3.4,4.5-7.6,8.3-12.7,11.3
						c-3.9,2.2-7.9,3.7-12,4.7c-4.1,1-8.3,1.3-12.4,1.1c-4.1-0.2-8.2-1.1-12.1-2.6c-3.9-1.5-7.7-3.5-11.1-6.2
						c-4.3-3.4-7.8-7-10.4-11.1c-2.6-4-4.6-8.4-5.9-13c-2-7-2.6-13.9-1.8-20.7c0.8-6.8,3.1-13.4,6.9-19.9c2-3,4.3-5.9,6.8-8.5
						c2.5-2.6,5.5-5,8.8-7.1c3.9-2.3,8-4,12.2-5.1c4.2-1.1,8.5-1.5,12.6-1.3c4.2,0.2,8.3,1.1,12.3,2.6c4,1.5,7.9,3.6,11.4,6.3
						c4.4,3.4,7.9,7.1,10.5,11.1c2.6,4.1,4.5,8.5,5.8,13.2c0.6,2.2,1,4.2,1.3,6.2C463.4,534,463.7,535.6,463.9,536.8z M403,541.5
						c-0.2,2.3,0,4.7,0.6,7.1c0.6,2.4,1.6,4.8,3,7c1.7,2.9,3.7,5.3,6,7.2c2.4,1.9,5,2.9,7.9,2.9c2.8,0,5.4-0.9,7.7-2.7
						c0.9-0.6,1.8-1.3,2.6-2c0.8-0.7,1.5-1.5,2-2.4c7.5-11.7,7.5-23.3,0.1-35c-0.6-1.1-1.4-2.1-2.5-3.1c-1-0.9-2.2-1.8-3.4-2.7
						c-2-1.3-4.1-1.9-6.3-2c-2.2,0-4.4,0.5-6.6,1.6c-1.4,0.9-2.6,1.9-3.7,2.9c-1.1,1.1-2,2.2-2.8,3.4
						C404.2,529.1,402.7,534.9,403,541.5z"/>
				</g>
			</g>
			<g>
				<g>
					<g>
						<path class="st4" d="M546.1,581.4c-0.2,0.1-0.4,0.2-0.6,0.3c-0.2,0.1-0.3,0.2-0.5,0.3c-2,1.7-4.3,2.9-6.8,3.6
							c-2.5,0.7-5.2,1.1-8,1.3c-1.5,0.1-2.9,0-4.4-0.1c-1.5-0.1-2.9-0.2-4.5-0.3c-2.8-0.2-5.6-0.8-8.4-2c-2.8-1.1-5.5-2.6-7.9-4.5
							c-2.4-1.9-4.5-4-6.3-6.5c-1.8-2.4-2.9-5-3.4-7.8c-0.5-2.3-0.4-4.4,0.3-6.5c0.7-2.1,1.7-4.2,2.9-6.2c1.2-2,2.8-3.9,4.7-5.5
							c1.9-1.7,3.9-3.2,6.1-4.8c0.3-0.2,0.6-0.4,0.9-0.6c0.3-0.2,0.6-0.4,0.9-0.7c0.1,0,0.1-0.1,0.1-0.3c-0.7-0.9-1.3-1.8-2-2.7
							c-0.7-0.9-1.3-1.8-1.9-2.8c-1.1-1.7-1.7-3.5-1.8-5.4c-0.1-1.8,0.2-3.6,0.9-5.2c0.7-1.7,1.8-3.2,3.3-4.5
							c1.5-1.4,3.4-2.5,5.7-3.4c1.7-0.6,3.4-1,5.1-1.1c1.7-0.1,3.5-0.1,5.2,0.2c7,0.5,13.6,2.1,19.8,4.6c1.2,0.5,2.1,1.1,2.9,2
							c0.8,0.9,1.4,1.8,1.7,2.9c0.3,1.1,0.4,2.2,0.3,3.3s-0.5,2.2-1.2,3.2c-0.2,0.3-0.5,0.6-0.8,0.8c-0.3,0.3-0.6,0.5-0.9,0.8
							c-0.8,0.8-1.5,1.3-2.1,1.7c-0.6,0.4-1.2,0.6-1.9,0.7c-0.6,0.1-1.3,0-2-0.3c-0.7-0.3-1.6-0.7-2.6-1.2c-1.2-0.6-2.5-1.3-3.8-1.9
							c-1.3-0.6-2.6-1.2-3.9-1.7c-0.6-0.2-1.3-0.4-2-0.5c-0.8-0.1-1.5-0.1-2.2-0.1c-0.7-0.1-1.1,0.1-1.4,0.4
							c-0.3,0.3-0.2,0.8,0.3,1.2c0.3,0.3,0.6,0.7,1,1c0.4,0.3,0.8,0.6,1.1,0.9c0.7,0.5,1.4,0.9,2.1,1.4c0.7,0.4,1.4,0.9,2.1,1.4
							c1.4,1,2.2,2.3,2.5,3.9c0.3,1.5,0,2.9-0.8,4.1c-0.9,1.3-2.3,2.2-4.4,2.4c-1,0.1-2.1,0.2-3.1,0.4c-1.1,0.1-2.1,0.3-3.2,0.5
							c-2.3,0.5-4.3,1.2-5.9,2.3c-1.6,1.1-3,2.4-4.2,4c-1.4,1.9-1.9,3.9-1.7,6.2c0.3,2.3,1.3,4.3,3,6.1c1.8,1.9,4,3,6.6,3.5
							c2.6,0.5,5.2,0.5,7.8-0.1c2.3-0.5,4-1.7,5.1-3.4s1.3-3.6,0.5-5.5H532c-1.4-0.1-2.3-0.3-2.8-0.6c-0.5-0.3-0.9-1-1.3-2
							c-0.8-2.6-0.4-4.8,1.1-6.7c1.5-1.8,4-2.9,7.3-3.3c3.1-0.3,6.1-0.5,9.1-0.4c3,0.1,6,0.5,9.1,1.3c1.2,0.3,2.2,0.8,3,1.5
							c0.8,0.6,1.5,1.4,2,2.2c0.5,0.8,0.7,1.7,0.8,2.7c0.1,0.9-0.1,1.8-0.5,2.7c-0.8,1.6-2.3,2.6-4.5,3.1c-0.4,0.1-0.8,0.2-1.3,0.2
							c-0.5,0-0.9,0.1-1.4,0.2c0.5,2.3,1.3,4.5,2.5,6.5c1.2,2,2.7,3.8,4.5,5.6c0.7,0.7,1.5,1.4,2.2,2.1c0.7,0.7,1.5,1.4,2.2,2
							c1.2,1,1.4,2.3,0.5,3.7c-0.7,1-1.5,1.8-2.4,2.6c-0.9,0.7-2,1.4-3.3,2c-3.2,1.5-6,1.1-8.5-1c-0.7-0.7-1.4-1.4-2.1-2.2
							C547.7,583,546.9,582.2,546.1,581.4z"/>
					</g>
				</g>
			</g>
			<g>
				<g>
					<path class="st1" d="M651.7,557.6c-2.2,0.2-4.2,0.2-6.1,0.2c-1.9,0-3.8,0.1-5.7,0.2c-3.9,0.2-6.5,0-7.9-0.8
						c-1.4-0.8-2.2-2.6-2.5-5.4c-0.2-2.9-0.2-5.8,0-8.7c0.1-2.8,2.1-4.3,6.1-4.7c2.5-0.2,4.9-0.3,7.3-0.4c2.4-0.1,4.8-0.2,7.2-0.4
						c3.7,0,7.4,0,11.1,0c3.7,0,7.4,0.1,11.2,0.2c3.8,0.1,6.5,0.7,8.1,1.9c1.6,1.2,2.5,3,2.7,5.6c0.9,8.9-1.2,17.4-6.3,25.6
						c-2.2,3.6-5,6.6-8.5,9c-3.4,2.4-7.2,4.3-11.3,5.6c-4.1,1.3-8.4,2.1-12.9,2.3c-4.5,0.2-9,0-13.3-0.8c-4.3-0.8-8.5-2.1-12.4-3.8
						c-3.9-1.7-7.4-3.9-10.4-6.5c-3.6-3.2-6.7-6.8-9.2-11c-2.5-4.1-4.5-8.4-5.8-12.9c-1.3-4.5-2-9.1-2-13.8
						c-0.1-4.7,0.5-9.2,1.8-13.6c1.2-4.4,3.2-8.6,5.8-12.4c2.6-3.9,5.9-7.3,9.9-10.2c4.8-3.6,9.9-6.2,15.4-7.9
						c5.5-1.7,10.9-2.6,16.4-2.7c5.4-0.1,10.7,0.5,15.7,2c5,1.4,9.5,3.5,13.4,6.2c3.9,2.7,7.1,5.9,9.5,9.8c2.4,3.9,3.8,8.2,4,13
						c0.1,1.8-0.3,3.2-1.2,4c-0.9,0.8-2.6,1.6-5.2,2.3c-2,0.5-4,0.8-6,0.9c-2,0.1-4,0.1-6,0.1c-4.2-0.1-6.9-1.4-8.2-4.1
						c-0.3-0.6-0.6-1.3-0.9-2c-0.3-0.7-0.7-1.4-1-2.2c-1.4-2.6-3.2-4.4-5.5-5.6c-2.3-1.2-4.7-1.7-7.3-1.7c-2.5,0-5.1,0.5-7.7,1.5
						c-2.6,1-4.9,2.4-6.9,4.2c-2.9,2.6-4.9,5.8-6.1,9.6c-1.1,3.8-1.6,7.6-1.3,11.6c0.2,3.9,1.1,7.6,2.6,11.1c1.5,3.5,3.5,6.3,6,8.4
						c2.2,1.9,4.6,3.2,7.1,3.8c2.5,0.6,4.9,0.7,7.2,0.2c2.2-0.4,4.2-1.3,5.9-2.7C649.9,561.4,651.1,559.7,651.7,557.6z"/>
				</g>
			</g>
			<g>
				<g>
					<path class="st0" d="M748.3,566c5.8-0.2,8.7,1.9,8.8,6.1c0.1,2.1,0.1,3.9-0.1,5.4c-0.1,1.5-0.3,3.3-0.5,5.3
						c-0.4,2.8-2.5,4.3-6.3,4.4c-9.1,0.2-17.7,0.4-25.8,0.7c-8.1,0.3-15.9,0-23.4-0.9c-2.2-0.2-4-1-5.3-2.2
						c-1.3-1.2-2.1-2.7-2.2-4.5c-0.5-13.1-0.8-25.7-0.9-37.9c-0.1-12.2-0.2-23.7-0.3-34.4c0-1.7,0-3.4,0.1-5.1
						c0.1-1.7,0.4-3.3,1-4.7c0.5-1.4,1.4-2.6,2.7-3.5c1.2-0.9,3.1-1.4,5.5-1.5c2.6-0.1,5.2-0.1,7.8-0.1c2.6,0,5.2,0,7.8-0.1
						c1.7,0,3.3,0,4.9-0.1c1.5-0.1,3.1-0.2,4.7-0.2c3.2-0.2,6.3-0.3,9.4-0.5c3-0.2,6.1-0.3,9.1-0.4c1.9,0,3.9,0.4,5.9,1.1
						c2,0.8,3.4,1.9,4,3.3c1.7,4.2,2,8.2,1,12.1c-0.3,1.8-1.2,3.3-2.6,4.7c-1.4,1.4-3.6,2-6.5,1.8c-2.6-0.2-5.1-0.3-7.6-0.4
						c-2.5-0.1-5-0.2-7.6-0.2c-3.6,0-6.2,0.2-7.9,0.5c-1.7,0.2-2.9,0.7-3.7,1.3c-0.7,0.6-1.2,1.5-1.5,2.7c-0.2,1.2-0.4,2.6-0.3,4.4
						c0,1.8,0,4-0.1,6.6c0,1.4,0.7,2.2,2.2,2.6c1.4,0.4,2.9,0.5,4.3,0.5c2.6,0,5,0,7.3,0c2.3,0,4.6,0.1,6.9,0.4
						c1.4,0.2,2.6,0.6,3.5,1.2c0.9,0.6,1.5,1.6,1.6,2.9c0.1,1.6,0.2,3.2,0.4,4.8c0.1,1.6,0.2,3.2,0.1,4.8c-0.2,3.6-2.7,5.4-7.5,5.4
						c-1.2,0-2.4,0-3.6-0.1c-1.2-0.1-2.3-0.2-3.4-0.2c-1.3-0.1-2.6-0.1-3.8-0.2c-1.2,0-2.5,0-3.8,0.1c-1.3,0.1-2.2,0.3-2.7,0.7
						c-0.5,0.4-0.7,1.1-0.7,2.1c0,1.4,0,2.7-0.1,4c-0.1,1.3,0,2.7,0.1,4.1c0.1,1.6,0.5,2.6,1.1,3.1c0.6,0.5,2,0.7,4,0.7
						c3.8,0,7,0,9.6-0.1c2.6,0,4.8-0.1,6.6-0.1c1.8,0,3.3-0.1,4.6-0.2C745.9,566.1,747.1,566,748.3,566z"/>
				</g>
			</g>
			<g>
				<g>
					<g>
						<path class="st5" d="M792.6,541.5c0.3,5.5,0.6,10.9,0.8,16.3c0.2,5.3,0.5,10.7,0.7,16.2c0.1,1.5,0.1,3,0,4.5
							c-0.1,1.5-0.2,3-0.3,4.4c-0.2,2.6-1.8,4-4.9,4.4c-0.7,0.2-1.4,0.3-2.1,0.4c-0.7,0.1-1.4,0.1-2.1,0.1c-2-0.1-3.9-0.1-5.8-0.2
							c-1.8,0-3.7-0.1-5.6-0.2c-5.5-0.4-8.4-2.7-8.7-6.9c-0.1-1.5-0.1-3,0-4.5c0.1-1.5,0.2-3,0.3-4.5c0.2-3,0.3-6.1,0.5-9.2
							c0.2-3.1,0.3-6.1,0.5-9.2c0.2-4.5,0.4-9.1,0.7-13.5c0.2-4.5,0.4-8.9,0.4-13.4c0.1-4.2,0-8.6-0.1-13.1
							c-0.2-4.5-0.4-8.9-0.6-13.1c-0.2-2.6,0.2-4.4,1.1-5.4c1-1.1,3-1.7,6.2-1.9c4.6-0.2,9.5,0,14.7,0.6c1.7,0.2,3.1,0.7,4.4,1.7
							c1.2,1,2.3,2,3.5,3.2c0.9,1,1.7,1.9,2.5,2.9c0.8,1,1.5,2.1,2.3,3.2c3.5,5.5,7.1,11.2,10.7,17.2c3.6,5.9,7.5,11.4,11.5,16.3
							c0-2.1,0-4.2,0.1-6.3c0-2.2,0-4.3-0.1-6.3c0-3.9-0.1-8.1-0.1-12.6c-0.1-4.5-0.1-8.7-0.1-12.5c0-3.9,2.5-6.2,7.5-6.9
							c2.4-0.4,4.8-0.6,7.2-0.6c2.4,0,4.7,0.2,7,0.7c2.5,0.4,4.4,1.2,5.7,2.3c1.3,1.1,2,2.7,2.2,4.8c0.2,2.4,0.3,5.2,0.4,8.3
							c0,3.2,0.1,6,0.1,8.4c0.2,4.1,0.3,8.1,0.3,12.2c0,4.1,0,8.1,0,12.2c0.1,2.8,0.1,5.6,0.1,8.5s0,5.7,0.1,8.5
							c0.1,3.5,0.2,7,0.3,10.4c0.1,3.4,0.2,6.8,0.3,10.2c0,1.6-0.2,3.1-0.7,4.4c-0.5,1.4-1.7,2.2-3.7,2.6c-3.2,0.8-6.2,1.2-9,1.2
							c-2.8,0-5.6,0-8.5,0c-2.3,0.2-4.2-0.2-5.7-1c-1.5-0.8-2.7-2-3.7-3.5c-0.5-0.8-1-1.6-1.5-2.3c-0.5-0.8-1-1.5-1.3-2.2
							c-1.6-3.4-3.4-6.6-5.5-9.8c-2-3.2-4.4-6.2-7-9c-2.6-2.8-4.9-5.7-6.9-8.7c-2-3-4.2-5.9-6.6-8.7c-0.2-0.2-0.3-0.3-0.4-0.4
							c-0.1-0.1-0.2-0.3-0.4-0.4c-0.1,0-0.2,0-0.2,0.1C792.9,541.5,792.8,541.5,792.6,541.5z"/>
					</g>
				</g>
			</g>
			<g>
				<g>
					<path class="st3" d="M919.5,571.6c-4.7,0.2-9.3,0.4-13.8,0.6c-4.5,0.2-9,0.3-13.6,0.5c-0.2,1.4-0.4,2.7-0.6,3.9
						c-0.2,1.2-0.4,2.5-0.4,3.9c-0.2,2.2-1.1,3.8-2.6,4.8c-1.5,1.1-3.5,1.8-5.8,2.1c-4.6,0.4-9.1,0.4-13.6,0c-2.2-0.2-3.8-0.8-4.9-2
						c-1.1-1.2-1.6-2.7-1.6-4.4c-0.1-5.7,0-12.1,0.2-19.1c0.2-7,1-14,2.2-20.9c1.2-7,3-13.6,5.5-19.9c2.5-6.3,6-11.7,10.5-16
						c3.4-3.4,7.3-6.1,11.7-8.4c4.4-2.2,9.1-3.5,14.2-3.7c4.5-0.2,8.6,0.3,12.3,1.5c3.7,1.2,7,3,9.9,5.3c2.9,2.3,5.4,4.9,7.6,8
						c2.1,3,4,6.2,5.5,9.4c1.5,3.2,2.8,6.4,3.7,9.6c0.9,3.2,1.6,6.1,2,8.7c1.1,7.3,1.6,14.4,1.6,21.5c0,7.1-0.2,14.3-0.6,21.5
						c-0.2,1.8-0.6,3.6-1.3,5.3c-0.7,1.7-2.3,2.7-4.8,3.1c-2.4,0.2-4.8,0.3-7.3,0.4c-2.4,0.1-5,0.1-7.6,0.1
						c-2.6-0.1-4.4-0.6-5.4-1.5c-1-0.9-1.6-2.6-1.8-5c-0.2-1.7-0.4-3.3-0.6-4.7C919.9,574.7,919.7,573.2,919.5,571.6z M917.7,551.1
						c0-1.9-0.1-4.1-0.2-6.6c-0.1-2.5-0.4-5-0.8-7.5c-1-6.1-2.6-10.5-4.9-13.3c-2.2-2.8-4.4-4-6.5-3.6c-1.3,0.2-2.5,1-3.7,2.3
						c-1.2,1.3-2.3,2.9-3.4,4.7c-1,1.9-2,4-2.8,6.2c-0.8,2.3-1.5,4.5-2,6.8c-0.5,2.3-1,4.5-1.3,6.6c-0.3,2.1-0.4,3.9-0.3,5.4
						c4.6-0.2,9-0.3,13.2-0.5C909.2,551.4,913.4,551.2,917.7,551.1z"/>
				</g>
			</g>
			<g>
				<g>
					<g>
						<path class="st5" d="M853.8,568.8c-0.1-3.4-0.2-6.8-0.3-10.4c-0.1-2.8-0.1-5.6-0.1-8.5c0-2.9-0.1-5.7-0.2-8.5v-12.2
							c0-4.1-0.1-8.1-0.3-12.2c0-2.5,0-5.3-0.1-8.4c0-3.2-0.2-5.9-0.4-8.3c-0.2-2.1-0.9-3.7-2.2-4.8c-1.3-1.1-3.2-1.9-5.7-2.3
							c-2.3-0.5-4.6-0.7-7-0.7c-2.4,0-4.8,0.2-7.2,0.6c-5,0.7-7.5,3-7.5,6.9c0,3.8,0,8,0.2,12.5c0.1,4.5,0.1,8.7,0.1,12.6
							c0.1,2.1,0.1,4.2,0.1,6.3c0,2.2-0.1,4.3-0.1,6.3c-4-5-7.8-10.4-11.5-16.3c-3.7-5.9-7.2-11.7-10.7-17.2
							c-0.8-1.1-1.6-2.2-2.3-3.2s-1.6-2-2.5-2.9c-1.1-1.2-2.2-2.3-3.4-3.2c-1.2-1-2.7-1.5-4.4-1.7c-5.2-0.6-10.1-0.8-14.7-0.6
							c-3.2,0.2-5.3,0.8-6.2,1.9c-1,1.1-1.3,2.9-1.1,5.4c0.2,4.2,0.4,8.6,0.6,13.1c0.1,3.1,0.2,6.2,0.2,9.2c0,1.3,0,2.6,0,3.9
							c0,4.1-0.1,8.1-0.3,12.2c0,0.4,0,0.8-0.1,1.2c-0.2,4.5-0.5,9-0.7,13.5c-0.2,3-0.4,6.1-0.5,9.2c-0.1,2.4-0.3,4.8-0.4,7.1
							c0,0.7-0.1,1.4-0.1,2.1c-0.1,1.5-0.2,3-0.3,4.5c-0.1,1.3-0.1,2.6,0,3.9c0,0.2,0,0.4,0,0.6c0.3,4.2,3.2,6.5,8.7,6.9
							c1.9,0.1,3.8,0.1,5.6,0.2c0.2,0,0.4,0,0.6,0c1.7,0,3.4,0.1,5.2,0.2c0.7,0,1.4,0,2.1-0.1s1.4-0.2,2.1-0.4
							c0.9-0.1,1.7-0.3,2.4-0.6c1.6-0.7,2.5-2,2.6-3.8c0.1-1.4,0.2-2.9,0.3-4.4c0.1-1.5,0.1-3,0-4.5c0-0.6,0-1.1-0.1-1.7
							c-0.1-2.5-0.2-5.1-0.3-7.6c-0.1-2.3-0.2-4.6-0.3-6.9c-0.2-5.3-0.5-10.8-0.8-16.3c0.2,0,0.3,0,0.4-0.1s0.1-0.1,0.2-0.1
							c0.2,0.2,0.3,0.3,0.4,0.4c0,0.1,0.2,0.3,0.4,0.4c2.4,2.8,4.6,5.7,6.6,8.7c2,3,4.3,5.9,6.9,8.7c2.6,2.9,4.9,5.9,7,9
							c2.1,3.1,3.9,6.4,5.5,9.8c0.4,0.7,0.8,1.5,1.3,2.2c0.5,0.8,1,1.5,1.5,2.3c1,1.5,2.2,2.7,3.7,3.5c1.5,0.8,3.4,1.1,5.7,1h8.5
							c2.8,0,5.8-0.4,9-1.2c2-0.4,3.2-1.3,3.7-2.6c0.5-1.4,0.8-2.8,0.8-4.4C854,575.6,853.9,572.2,853.8,568.8z"/>
					</g>
				</g>
			</g>
			<g>
				<g>
					<path class="st3" d="M947.8,535.4c-0.4-2.6-1.1-5.5-2-8.7c-0.9-3.2-2.2-6.4-3.7-9.6c-1.5-3.2-3.4-6.4-5.5-9.4
						c-2.1-3-4.7-5.7-7.6-8c-2.9-2.3-6.2-4-9.9-5.3c-3.7-1.2-7.8-1.7-12.3-1.5c-5.1,0.2-9.8,1.5-14.2,3.7c-4.4,2.2-8.3,5-11.7,8.4
						c-4.5,4.4-8,9.7-10.5,16c-2.5,6.3-4.3,13-5.5,19.9c-1.2,7-1.9,14-2.2,21c-0.2,7-0.3,13.4-0.2,19.1c0,1.8,0.5,3.2,1.6,4.4
						c1.1,1.2,2.7,1.9,4.9,2c4.5,0.4,9,0.4,13.6,0c0.2,0,0.3-0.1,0.5-0.1c2.1-0.3,3.9-1,5.3-2c1.5-1.1,2.4-2.7,2.6-4.9
						c0-0.5,0.1-1,0.1-1.4c0.1-0.8,0.2-1.7,0.3-2.5c0.2-1.2,0.4-2.5,0.6-3.9c4.6-0.2,9.1-0.3,13.6-0.5h0.1c2.7-0.1,5.4-0.2,8.2-0.3
						c1.8-0.1,3.7-0.2,5.5-0.3c0.2,1.5,0.4,3,0.6,4.5c0.2,1.5,0.4,3,0.6,4.7c0.2,2.4,0.8,4,1.8,5c1,0.9,2.8,1.4,5.4,1.5
						c1.1,0,2.2,0,3.3,0c1.4,0,2.8-0.1,4.2-0.1c2.4-0.1,4.9-0.2,7.3-0.4c2.5-0.3,4.1-1.3,4.8-3.1c0.7-1.7,1.1-3.5,1.3-5.3
						c0-0.6,0.1-1.3,0.1-1.9c0.3-6.6,0.5-13.2,0.5-19.7C949.4,549.8,948.9,542.6,947.8,535.4z M911.3,551.3
						c-2.1,0.1-4.2,0.2-6.3,0.3c-3.8,0.2-7.7,0.3-11.8,0.5c-0.5,0-0.9,0-1.4,0.1c-0.1-1.5,0-3.3,0.3-5.5c0.3-2.1,0.7-4.3,1.3-6.6
						c0.5-2.3,1.2-4.5,2-6.8c0.8-2.3,1.7-4.4,2.8-6.2c1-1.9,2.2-3.5,3.4-4.7c1.2-1.3,2.4-2,3.7-2.3c2.1-0.4,4.3,0.8,6.5,3.6
						c2.2,2.8,3.9,7.2,4.9,13.3c0.4,2.6,0.7,5.1,0.8,7.5c0.2,2.5,0.2,4.7,0.2,6.6C915.6,551.1,913.4,551.2,911.3,551.3z"/>
				</g>
			</g>
			<g>
				<g>
					<defs>
						<path id="SVGID_3_" d="M651.7,557.6c-2.2,0.2-4.2,0.2-6.1,0.2c-1.9,0-3.8,0.1-5.7,0.2c-3.9,0.2-6.5,0-7.9-0.8
							c-1.4-0.8-2.2-2.6-2.5-5.4c-0.2-2.9-0.2-5.8,0-8.7c0.1-2.8,2.1-4.3,6.1-4.7c2.5-0.2,4.9-0.3,7.3-0.4c2.4-0.1,4.8-0.2,7.2-0.4
							c3.7,0,7.4,0,11.1,0c3.7,0,7.4,0.1,11.2,0.2c3.8,0.1,6.5,0.7,8.1,1.9c1.6,1.2,2.5,3,2.7,5.6c0.9,8.9-1.2,17.4-6.3,25.6
							c-2.2,3.6-5,6.6-8.5,9c-3.4,2.4-7.2,4.3-11.3,5.6c-4.1,1.3-8.4,2.1-12.9,2.3c-4.5,0.2-9,0-13.3-0.8c-4.3-0.8-8.5-2.1-12.4-3.8
							c-3.9-1.7-7.4-3.9-10.4-6.5c-3.6-3.2-6.7-6.8-9.2-11c-2.5-4.1-4.5-8.4-5.8-12.9c-1.3-4.5-2-9.1-2-13.8
							c-0.1-4.7,0.5-9.2,1.8-13.6c1.2-4.4,3.2-8.6,5.8-12.4c2.6-3.9,5.9-7.3,9.9-10.2c4.8-3.6,9.9-6.2,15.4-7.9
							c5.5-1.7,10.9-2.6,16.4-2.7c5.4-0.1,10.7,0.5,15.7,2c5,1.4,9.5,3.5,13.4,6.2c3.9,2.7,7.1,5.9,9.5,9.8c2.4,3.9,3.8,8.2,4,13
							c0.1,1.8-0.3,3.2-1.2,4c-0.9,0.8-2.6,1.6-5.2,2.3c-2,0.5-4,0.8-6,0.9c-2,0.1-4,0.1-6,0.1c-4.2-0.1-6.9-1.4-8.2-4.1
							c-0.3-0.6-0.6-1.3-0.9-2c-0.3-0.7-0.7-1.4-1-2.2c-1.4-2.6-3.2-4.4-5.5-5.6c-2.3-1.2-4.7-1.7-7.3-1.7c-2.5,0-5.1,0.5-7.7,1.5
							c-2.6,1-4.9,2.4-6.9,4.2c-2.9,2.6-4.9,5.8-6.1,9.6c-1.1,3.8-1.6,7.6-1.3,11.6c0.2,3.9,1.1,7.6,2.6,11.1c1.5,3.5,3.5,6.3,6,8.4
							c2.2,1.9,4.6,3.2,7.1,3.8c2.5,0.6,4.9,0.7,7.2,0.2c2.2-0.4,4.2-1.3,5.9-2.7C649.9,561.4,651.1,559.7,651.7,557.6z"/>
					</defs>
					<clipPath id="SVGID_2_">
						<use xlink:href="#SVGID_3_"  style="overflow:visible;"/>
					</clipPath>
					<g class="st6">
						<g>
							<circle class="st0" cx="592.1" cy="551.5" r="10.5"/>
						</g>
						<g>
							<circle class="st0" cx="618.7" cy="529.8" r="9.1"/>
						</g>
						<g>
							<circle class="st0" cx="659.6" cy="583.2" r="4.2"/>
						</g>
						<g>
							<circle class="st0" cx="597.9" cy="531" r="4.2"/>
						</g>
						<g>
							<circle class="st0" cx="617.7" cy="578.7" r="8.2"/>
						</g>
						<g>
							<circle class="st0" cx="619.1" cy="555.9" r="6"/>
						</g>
						<g>
							<circle class="st0" cx="641.9" cy="575.6" r="6.9"/>
						</g>
					</g>
				</g>
				<g>
					<g>
						<path class="st7" d="M148.2,536.6c-2.8-2-5.4-4.2-7.8-6.5c-2.8-3.2-4.4-6.5-4.9-10.1c1-0.9,2.2-1.7,3.6-2.2
							c5.5-2,11.5,0.9,13.4,6.4C154.2,528.9,152.3,534.1,148.2,536.6z"/>
					</g>
					<g>
						<path class="st7" d="M151.9,508.6c-4.6,1.6-9.8-0.7-11.5-5.3c1.1-1.3,2.4-2.5,3.9-3.6c3.2-2.5,7-4.3,11.5-5.5
							c0.7,0.8,1.3,1.8,1.6,2.8C159.1,501.8,156.6,506.9,151.9,508.6z"/>
					</g>
					<g>
						<path class="st7" d="M179,492.2c-0.7,2.3-2.4,4.2-4.8,5c-4,1.4-8.4-0.7-9.8-4.6c0,0,0,0,0-0.1c2.8-0.4,5.5-0.6,8.2-0.6
							C174.8,491.9,177,492,179,492.2z"/>
					</g>
					<g>
						<circle class="st7" cx="140.4" cy="561.9" r="4.2"/>
					</g>
					<g>
						<path class="st7" d="M165.4,515.9c-0.7,1-1,2.1-1,3.2c0,0.9,0.2,1.7,0.5,2.6v0c-0.1,0.1-0.3,0.1-0.4,0.2
							c-2.2,0.8-4.5-0.4-5.3-2.5c-0.8-2.2,0.3-4.5,2.5-5.3c1.6-0.6,3.3-0.1,4.4,1C165.8,515.3,165.6,515.6,165.4,515.9z"/>
					</g>
					<g>
						<path class="st7" d="M164,573.1c-4.3,1.5-9-0.7-10.5-5c-1.5-4.3,0.7-9,5-10.5c0.3-0.1,0.7-0.2,1-0.3c1.1,1.8,2.7,3.4,4.8,4.6
							c1.7,1,3.4,1.7,5.1,2.1C170,567.9,167.8,571.8,164,573.1z"/>
					</g>
					<g>
						<path class="st7" d="M195.7,581.5c-3.8,2.5-7.9,4.2-12.3,5.2c-1,0.2-1.9,0.4-2.9,0.5c-0.8-3.9,1.4-8,5.3-9.4
							C189.6,576.5,193.8,578.1,195.7,581.5z"/>
					</g>
					<g>
						<path class="st7" d="M166.3,546.7c-2-1.1-4-2.1-6-3c-1.1-0.5-2.2-1.1-3.3-1.6c-0.1-2.6,1.4-5,4-6c3.1-1.1,6.5,0.5,7.6,3.6
							C169.5,542.3,168.5,545.2,166.3,546.7z"/>
					</g>
					<g>
						<path class="st7" d="M163.7,586.6L163.7,586.6c-3.9-0.7-7.6-1.9-10.9-3.3c0-2.5,1.5-4.8,4-5.6c3.1-1.1,6.5,0.5,7.6,3.6
							C165,583.1,164.7,585.1,163.7,586.6z"/>
					</g>
				</g>
				<g>
					<g>
						<path class="st7" d="M564.6,582.3c-0.7,1-1.5,1.8-2.4,2.6c-0.1,0.1-0.2,0.2-0.4,0.3l0,0c-4.8,0.7-9.6-2.1-11.3-6.9
							c-1.6-4.4,0-9.1,3.5-11.9c0.4,0.9,0.8,1.7,1.3,2.5c1.2,2,2.6,3.8,4.5,5.6c0.7,0.7,1.5,1.4,2.2,2.1c0.7,0.7,1.5,1.4,2.2,2
							C565.3,579.6,565.4,580.9,564.6,582.3z"/>
					</g>
					<g>
						<path class="st7" d="M514.2,553.8c-0.3,0.3-0.6,0.7-0.8,1c-1.1,1.4-1.6,3-1.7,4.6c-0.9,1-2.1,1.7-3.5,2.2
							c-4.6,1.6-9.6-0.6-11.4-5.1c0.5-1.1,1.1-2.2,1.8-3.4c1.2-2,2.8-3.9,4.7-5.5c1.3-1.2,2.7-2.3,4.2-3.4c2.8,0.7,5.2,2.8,6.3,5.7
							C514.1,551.3,514.3,552.5,514.2,553.8z"/>
					</g>
					<g>
						<path class="st7" d="M535.7,517.9c-1,1.9-2.7,3.4-4.9,4.2c-4.7,1.7-9.9-0.8-11.6-5.5c0-0.1,0-0.1-0.1-0.2
							c0.4-0.1,0.9-0.1,1.4-0.1c1.7-0.1,3.5-0.1,5.2,0.2C529.2,516.7,532.5,517.2,535.7,517.9z"/>
					</g>
					<g>
						<circle class="st7" cx="506.4" cy="572.7" r="4.2"/>
					</g>
					<g>
						<circle class="st7" cx="515.3" cy="528.2" r="4.2"/>
					</g>
					<g>
						<path class="st7" d="M527.8,587L527.8,587c-0.7,0-1.3,0-1.9-0.1c-1.5-0.1-2.9-0.2-4.5-0.3c-1.6-0.1-3.2-0.4-4.8-0.8
							c-0.8-3,0.8-6.1,3.8-7.1c3.1-1.1,6.5,0.5,7.6,3.6C528.6,583.9,528.5,585.6,527.8,587z"/>
					</g>
				</g>
				<g>
					<g>
						<path class="st0" d="M223.3,552.2c-1.4,0.5-2.9,0.7-4.4,0.6c0-5.5,0-11.2,0.1-16.8c0-1.4,0.1-2.8,0.1-4.1
							c4.5-0.3,8.9,2.5,10.5,7C231.6,544.2,228.8,550.2,223.3,552.2z"/>
					</g>
					<g>
						<path class="st0" d="M249.7,514.5v17.5c-4.5,1.3-9.4-1.2-11-5.7c-1.7-4.7,0.8-9.9,5.5-11.6C246.1,514,248,514,249.7,514.5z"/>
					</g>
					<g>
						<circle class="st0" cx="225.5" cy="568.6" r="4.2"/>
					</g>
					<g>
						<circle class="st0" cx="227.2" cy="522.8" r="4.2"/>
					</g>
					<g>
						<path class="st0" d="M249.7,562.5c0,1.4,0,2.6,0,3.8c0,3.7-0.1,7.1-0.1,10v0.2c-0.5,0.3-1,0.5-1.5,0.7c-4.3,1.5-9-0.7-10.5-5
							c-1.5-4.3,0.7-9,5-10.5C245,560.9,247.6,561.2,249.7,562.5z"/>
					</g>
					<g>
						<circle class="st0" cx="241.3" cy="548.7" r="6"/>
					</g>
					<g>
						<path class="st0" d="M239.2,587.1c-1,0.1-2,0.1-3,0.2c-1.4,0.1-2.8,0.1-4,0.1c-1.3,0-2.4,0-3.3-0.1c-0.5,0-1.1-0.1-1.5-0.1
							c0.1-2.3,1.6-4.5,4-5.3c3.1-1.1,6.5,0.5,7.6,3.6C239,586,239.1,586.6,239.2,587.1z"/>
					</g>
				</g>
				<g>
					<g>
						<path class="st7" d="M701.2,555c-2.9,1-5.9,0.7-8.4-0.6c-0.1-4.1-0.1-8.1-0.2-12.1c0-2.2,0-4.3-0.1-6.4c0.5-0.3,1-0.5,1.5-0.7
							c5.5-1.9,11.5,0.9,13.4,6.4C709.5,547.1,706.7,553.1,701.2,555z"/>
					</g>
					<g>
						<path class="st7" d="M696.8,522.8c-1.4,0.5-2.9,0.6-4.3,0.4c-0.1-5.3-0.1-10.4-0.1-15.3c0-0.9,0-1.8,0-2.6
							c4.2-0.6,8.4,1.8,9.9,5.9C703.9,516,701.5,521.2,696.8,522.8z"/>
					</g>
					<g>
						<circle class="st7" cx="701.4" cy="569.8" r="4.2"/>
					</g>
					<g>
						<path class="st7" d="M721.3,532.5c-0.5,1-1.3,1.8-2.4,2.1c-2.2,0.8-4.6-0.4-5.3-2.5c-0.8-2.2,0.4-4.5,2.5-5.3
							c0.7-0.3,1.5-0.3,2.2-0.2c0,1,0,2-0.1,3.1c0,1.4,0.7,2.2,2.2,2.6C720.7,532.4,721,532.5,721.3,532.5z"/>
					</g>
					<g>
						<circle class="st7" cx="721.1" cy="575.9" r="8.2"/>
					</g>
					<g>
						<path class="st7" d="M725.3,551.7c-1,0-2,0-3,0.1c-1.3,0.1-2.2,0.3-2.7,0.7c-0.5,0.4-0.8,1.1-0.8,2.1c0,0.8,0,1.7,0,2.5
							c-2.2-0.2-4.2-1.7-5-3.9c-1.1-3.1,0.5-6.5,3.6-7.6c3.1-1.1,6.5,0.5,7.6,3.6C725.3,550,725.4,550.8,725.3,551.7z"/>
					</g>
					<g>
						<path class="st7" d="M710,587.7c-3-0.2-6-0.4-8.9-0.8c-1.1-0.1-2-0.3-2.9-0.7c0.4-2,1.8-3.7,3.9-4.4c3.1-1.1,6.5,0.5,7.6,3.6
							C709.9,586.2,710,587,710,587.7z"/>
					</g>
				</g>
				<g>
					<g>
						<path class="st7" d="M459.6,559.7c-1.7,3.9-3.9,7.6-6.6,11.1c-0.5,0.6-1,1.3-1.5,1.9c-5,1-10.2-1.8-11.9-6.8
							c-2-5.5,0.9-11.5,6.4-13.4c5.5-1.9,11.5,0.9,13.4,6.4C459.4,559.1,459.5,559.4,459.6,559.7z"/>
					</g>
					<g>
						<circle class="st7" cx="390.4" cy="542.4" r="9.1"/>
					</g>
					<g>
						<circle class="st7" cx="387.8" cy="562.4" r="4.2"/>
					</g>
					<g>
						<circle class="st7" cx="455.2" cy="542.6" r="4.2"/>
					</g>
					<g>
						<circle class="st7" cx="404.4" cy="572" r="6"/>
					</g>
				</g>
				<g>
					<g>
						<circle class="st3" cx="835" cy="565.6" r="10.5"/>
					</g>
					<g>
						<path class="st3" d="M772.6,539.5c-2.1,0.4-4.1,0-5.8-1c0.2-4.1,0.3-8.1,0.3-12.2c0-1.3,0-2.6,0-3.9c0.8-0.4,1.6-0.6,2.4-0.8
							c4.9-0.8,9.6,2.5,10.5,7.4C780.8,533.9,777.5,538.6,772.6,539.5z"/>
					</g>
					<g>
						<path class="st3" d="M769.7,581.2c-1.9,0.3-3.7-0.2-5.1-1.3c-0.1-1.3-0.1-2.6,0-3.9c0.1-1.5,0.2-3,0.3-4.5
							c0-0.7,0.1-1.4,0.1-2.1c0.7-0.5,1.6-0.8,2.5-1c3.5-0.6,6.8,1.8,7.4,5.3S773.2,580.6,769.7,581.2z"/>
					</g>
					<g>
						<circle class="st3" cx="774.3" cy="551.9" r="4.2"/>
					</g>
					<g>
						<circle class="st3" cx="833.5" cy="544.9" r="4.2"/>
					</g>
					<g>
						<path class="st3" d="M794.1,572.2c-0.9,1.2-2.2,2-3.8,2.3c-3.2,0.6-6.3-1.6-6.9-4.9c-0.6-3.2,1.6-6.3,4.9-6.9
							c2.1-0.4,4.1,0.4,5.5,1.9C793.9,567.2,794,569.7,794.1,572.2z"/>
					</g>
					<g>
						<circle class="st3" cx="815" cy="551.1" r="6"/>
					</g>
					<g>
						<path class="st3" d="M791.2,586.7c-0.7,0.3-1.4,0.5-2.4,0.6c-0.7,0.2-1.4,0.3-2.1,0.4s-1.4,0.1-2.1,0.1
							c-1.8-0.1-3.5-0.1-5.2-0.2c0.3-2.6,2.2-4.8,4.9-5.2C787.5,581.9,790.4,583.8,791.2,586.7z"/>
					</g>
				</g>
				<g>
					<g>
						<path class="st7" d="M948.9,576.6c0,0.6-0.1,1.2-0.1,1.9c-0.2,1.8-0.7,3.6-1.3,5.3c-0.7,1.7-2.3,2.7-4.8,3.1
							c-2.4,0.2-4.8,0.3-7.3,0.4c-1.4,0-2.8,0.1-4.2,0.1c-0.8-1-1.5-2.1-2-3.3c-2-5.5,0.9-11.5,6.4-13.4
							C941,568.6,946.9,571.3,948.9,576.6z"/>
					</g>
					<g>
						<circle class="st7" cx="877.3" cy="556.8" r="9.1"/>
					</g>
					<g>
						<path class="st7" d="M905.3,560.6c-4.7,1.7-9.9-0.8-11.6-5.5c-0.4-1-0.5-2-0.5-3c4.1-0.1,8-0.3,11.8-0.5
							c2.1-0.1,4.2-0.2,6.3-0.3C911.6,555.3,909.3,559.2,905.3,560.6z"/>
					</g>
					<g>
						<circle class="st7" cx="871.6" cy="575.5" r="5"/>
					</g>
					<g>
						<path class="st7" d="M914,571.9c-2.8,0.1-5.5,0.2-8.2,0.3c-0.4-2,0.7-4.1,2.7-4.8c2.2-0.8,4.5,0.3,5.3,2.5
							C914,570.6,914.1,571.3,914,571.9z"/>
					</g>
					<g>
						<circle class="st7" cx="935.9" cy="554.9" r="4.2"/>
					</g>
					<g>
						<path class="st7" d="M891.2,579.1c0,0.5-0.1,0.9-0.1,1.4c-0.2,2.2-1.1,3.8-2.6,4.9c-1.4,1-3.2,1.7-5.3,2
							c-0.2-0.3-0.4-0.7-0.5-1.1c-1.1-3.1,0.5-6.5,3.6-7.6C888,578.1,889.8,578.3,891.2,579.1z"/>
					</g>
				</g>
				<g>
					<g>
						<path class="st4" d="M313.9,566.1c-1-0.1-2.1-0.1-3.1,0c-1.6,0.1-3.1,0.1-4.7,0.1c-1.7-0.1-3.1-0.5-4.2-1.1
							c-1.1-0.7-2-1.6-2.8-2.7c-0.6-0.9-1.2-1.8-1.8-2.7c1-1.8,2.7-3.2,4.7-3.9c4.7-1.7,9.8,0.8,11.5,5.5
							C314.2,562.9,314.3,564.6,313.9,566.1z"/>
					</g>
					<g>
						<path class="st4" d="M265.9,548.6c-2.2,0.8-4.6,0.7-6.6-0.2c0-5.6,0-11.2,0-16.7c0.2-0.1,0.4-0.1,0.5-0.2
							c4.7-1.7,9.9,0.8,11.6,5.5C273.1,541.7,270.6,546.9,265.9,548.6z"/>
					</g>
					<g>
						<path class="st4" d="M365.1,561.2c-4.4,1.1-9.1-1.4-10.7-5.8c-1.7-4.7,0.8-9.9,5.5-11.6c1.7-0.6,3.4-0.7,5-0.3
							c0,1.4,0,2.7,0,4.1c0,2.5,0,5.1,0.1,8C365.1,557.4,365.1,559.3,365.1,561.2z"/>
					</g>
					<g>
						<path class="st4" d="M270.1,587.6c-1.4-0.1-2.8-0.2-4.2-0.3c-2.3-0.3-4.1-1.1-5.4-2.4c-0.9-0.9-1.5-2.1-1.8-3.4
							c0.7-1.5,2-2.7,3.6-3.3c3.4-1.2,7,0.6,8.2,3.9C271.3,584,271,586,270.1,587.6z"/>
					</g>
					<g>
						<circle class="st4" cx="267" cy="561.5" r="4.2"/>
					</g>
					<g>
						<circle class="st4" cx="301.5" cy="541.1" r="4.2"/>
					</g>
					<g>
						<path class="st4" d="M364.2,585.7c-0.9,0.8-2.8,1.4-5.8,1.6c-0.6,0.1-1.2,0.1-1.9,0.1c-0.7-0.8-1.3-1.7-1.6-2.8
							c-1.5-4.3,0.7-9,5-10.5c1.9-0.7,3.8-0.6,5.5,0c0,2.4,0,4.7,0,6.8C365.5,583.3,365.1,584.9,364.2,585.7z"/>
					</g>
					<g>
						<circle class="st4" cx="281" cy="575.2" r="6"/>
					</g>
					<g>
						<circle class="st4" cx="321.9" cy="548.3" r="6"/>
					</g>
					<g>
						<circle class="st4" cx="348.8" cy="566.7" r="6"/>
					</g>
					<g>
						<path class="st4" d="M288.5,550.6v11.3c-3.1,1-6.4-0.6-7.5-3.7c-1.1-3.1,0.5-6.5,3.6-7.6C285.9,550.2,287.3,550.2,288.5,550.6
							z"/>
					</g>
				</g>
			</g>
		</g>
		<g>
			<g>
				<g>
					<g>
						<path d="M173.9,588.2c-3,0-6-0.3-9.2-0.8c-5.2-0.9-10-2.4-14.3-4.5c-4.3-2.1-8.2-4.7-11.8-7.8c-2.1-1.9-3.9-3.9-5.2-6
							c-1.3-2.1-2.3-4.5-3-7c-0.6-2.5-0.1-5.1,1.6-7.6c1.3-2,2.9-3.6,4.8-5c1.9-1.4,4.3-2.4,7.2-2.8c2.4-0.4,4.7-0.3,6.8,0.4
							c2.2,0.7,3.9,1.9,5,3.6c0.8,1,1.5,2.1,2.1,3.1c0.6,1,1.2,2.1,1.8,3.2c1,1.8,2.6,3.3,4.7,4.5c2.1,1.2,4.2,2,6.3,2.3
							c2,0.3,3.9,0.2,5.6-0.5c1.6-0.6,2.5-1.8,2.8-3.6c0.2-1.3-0.2-2.8-1.1-4.3c-0.9-1.6-2.3-2.9-4.1-4l-6.9-3.8
							c-2.3-1.3-4.6-2.5-7-3.6c-7.6-3.5-14.3-8.1-20-13.6c-3-3.4-4.7-7.1-5.2-10.9c-0.5-3.8,0.1-7.5,1.6-11c1.5-3.5,4-6.6,7.5-9.3
							c3.4-2.7,7.7-4.6,12.6-5.8c5.5-1.3,10.9-2,16-2c5.2-0.1,9.9,0.6,14.2,1.9c3.1,1,6.4,2.6,9.9,4.6c3.5,2,6.4,4.4,8.7,7
							c2.3,2.7,3.8,5.6,4.3,8.7c0.5,3.2-0.7,6.4-3.7,9.5c-1.4,1.6-3.1,2.9-5.1,3.9c-1.9,1.1-3.9,1.7-5.9,2c-2,0.2-3.9,0-5.6-0.7
							c-1.8-0.7-3.3-2.1-4.4-4.1c-0.7-1.3-1.4-2.5-2.2-3.7c-0.8-1.2-1.6-2.3-2.5-3.4c-0.9-1.1-2.2-2.1-3.7-3
							c-2.6-1.7-5.1-1.8-7.8-0.4c-1.3,0.6-2.3,1.4-2.9,2.3c-0.6,1-0.9,1.9-0.9,3c0,1,0.2,2.1,0.7,3.1c0.5,1,1.2,1.8,2.2,2.5
							c2,1.3,4,2.5,6,3.7c2,1.2,4.1,2.4,6.2,3.5c2.5,1.4,5.1,2.8,7.8,4.1c2.7,1.3,5.2,2.7,7.5,4.1c4.5,2.8,7.9,6.1,10,9.8
							c2.1,3.7,3,7.9,2.8,12.4c-0.2,3.3-1,6.5-2.4,9.3c-1.4,2.8-3.5,5.5-6.3,7.8c-4.8,3.9-10.2,6.6-16,7.8
							C180.4,587.8,177.2,588.2,173.9,588.2z M146.5,547.3c-0.8,0-1.6,0.1-2.4,0.2c-2.7,0.5-5,1.4-6.7,2.7c-1.8,1.3-3.3,2.9-4.6,4.8
							c-1.5,2.3-2,4.5-1.4,6.8c0.7,2.4,1.7,4.7,2.9,6.7c1.3,2.1,2.9,4,5,5.8c3.5,3,7.5,5.6,11.6,7.6c4.2,2.1,8.9,3.6,14,4.4
							c6.5,1.1,12.6,1,18.3-0.2c5.6-1.2,10.9-3.8,15.6-7.6c2.7-2.3,4.8-4.8,6.1-7.5c1.3-2.7,2.1-5.7,2.3-8.9
							c0.2-4.3-0.7-8.3-2.7-11.9c-2-3.5-5.2-6.7-9.6-9.5c-2.3-1.4-4.8-2.8-7.4-4c-2.7-1.3-5.3-2.7-7.8-4.1c-2.1-1.1-4.2-2.3-6.2-3.5
							c-2-1.2-4.1-2.5-6.1-3.7c-1.2-0.8-2-1.7-2.6-2.9c-0.5-1.1-0.8-2.3-0.8-3.5c0-1.2,0.4-2.4,1-3.5c0.7-1.1,1.8-2,3.3-2.7
							c2.9-1.6,5.9-1.5,8.7,0.4c1.6,0.9,3,2,4,3.2c0.9,1.1,1.8,2.3,2.6,3.5c0.8,1.2,1.6,2.5,2.3,3.7c1,1.8,2.4,3,3.9,3.7
							c1.6,0.6,3.3,0.9,5.1,0.6c1.8-0.2,3.7-0.9,5.5-1.9c1.8-1,3.5-2.3,4.8-3.7c0,0,0,0,0,0c2.8-2.9,3.9-5.8,3.5-8.7
							c-0.5-2.9-1.9-5.7-4.1-8.2c-2.3-2.5-5.1-4.8-8.5-6.8c-3.4-2-6.7-3.5-9.7-4.5c-4.1-1.3-8.8-2-13.8-1.9
							c-5.1,0.1-10.4,0.8-15.8,2c-4.8,1.2-8.9,3.1-12.2,5.7c-3.3,2.6-5.7,5.6-7.2,8.9c-1.5,3.3-2,6.9-1.5,10.5
							c0.4,3.6,2.1,7.1,4.9,10.3c5.6,5.4,12.2,9.9,19.7,13.4c2.4,1.1,4.8,2.3,7.1,3.6l6.9,3.8c2,1.2,3.5,2.6,4.5,4.3
							c1,1.7,1.4,3.4,1.2,4.9c-0.3,2.2-1.5,3.7-3.4,4.4c-1.8,0.7-3.9,0.9-6.1,0.5c-2.2-0.4-4.4-1.2-6.6-2.5c-2.2-1.3-3.9-2.9-5-4.9
							c-0.6-1.1-1.2-2.2-1.8-3.2c-0.6-1-1.3-2-2.1-3.1c-1-1.5-2.6-2.6-4.5-3.2C149.2,547.5,147.9,547.3,146.5,547.3z"/>
					</g>
				</g>
				<g>
					<g>
						<path d="M232,588c-1.3,0-2.4,0-3.3-0.1c-3.6-0.2-6.3-1-7.9-2.6c-1.7-1.6-2.6-3.8-2.6-6.8v-9c0.1-5.3,0.1-10.9,0.1-16.4
							c0-5.7,0.1-11.5,0.1-17.2c0.1-5.6,0.2-11.4,0.4-17.2c0.1-5.6,0.4-11.2,0.7-16.4l0-2.2c0-0.8,0.1-1.6,0.2-2.4
							c0.1-1.5,0.7-2.8,1.7-3.7c1-0.9,2.5-1.4,4.4-1.4c1.2,0,2.6,0,4.3-0.1c1.6,0,3.3,0,5,0l4.9,0.1c1.6,0,3,0.1,4.2,0.2
							c2.1,0.2,3.6,0.7,4.4,1.5c0.8,0.8,1.3,2.1,1.4,3.9c0.2,1.3,0.3,2.6,0.1,3.8c-0.1,1.2-0.1,2.5-0.1,3.9v46.7
							c0,5.4,0,10-0.1,13.7c0,3.6-0.1,7-0.1,10c0,2-0.2,4-0.5,5.9c-0.5,3-2.6,4.7-6,5.1c-0.9,0.1-2,0.2-3.4,0.2l-4.1,0.2
							C234.7,587.9,233.3,588,232,588z M232.6,493.6c-0.8,0-1.7,0-2.5,0c-1.7,0-3.1,0.1-4.3,0.1c-1.7,0-2.9,0.4-3.8,1.1
							c-0.9,0.8-1.3,1.8-1.4,3.1c-0.1,0.8-0.1,1.6-0.1,2.3v2.2c-0.3,5.3-0.5,10.8-0.7,16.4c-0.2,5.8-0.3,11.6-0.4,17.2
							c-0.1,5.7-0.1,11.4-0.1,17.2c0,5.5-0.1,11.1-0.1,16.4v9c0,2.6,0.8,4.7,2.2,6c1.5,1.4,4,2.2,7.3,2.3c1.8,0.2,4.5,0.2,7.3,0
							l4.1-0.2c1.3-0.1,2.5-0.2,3.4-0.2c3-0.3,4.6-1.7,5.1-4.3c0.3-1.9,0.4-3.8,0.4-5.8c0-3,0-6.4,0.1-10c0-3.7,0.1-8.3,0.1-13.7
							V506c0-1.4,0.1-2.7,0.2-3.9c0.1-1.2,0-2.4-0.1-3.7c-0.1-1.5-0.5-2.6-1.1-3.3c-0.7-0.7-1.9-1.1-3.8-1.2
							c-1.2-0.1-2.6-0.1-4.2-0.2l-4.9-0.1C234.3,493.6,233.5,493.6,232.6,493.6z"/>
					</g>
				</g>
				<g>
					<g>
						<path d="M275,588.3c-1.2,0-2.4,0-3.5-0.1c-1.9-0.1-3.8-0.3-5.7-0.4c-2.4-0.3-4.3-1.2-5.7-2.5c-1.4-1.4-2.1-3.2-2.1-5.4
							c0-1.2,0.1-2.7,0.2-4.4l0.3-5.3c0.1-1.8,0.2-3.5,0.2-5.3c0-1.7,0.1-3.2,0.1-4.5c0-10.1,0-20.3-0.1-30.1
							c-0.1-9.5-0.1-19.4-0.1-30.2v-0.8c0.1-2.5,0.7-4.3,1.9-5.3c1.1-1,3.2-1.6,6.2-1.7c2.1-0.1,4.3-0.1,6.4,0.1
							c2.1,0.1,4.3,0.3,6.5,0.4c1.7,0.2,3.1,0.6,4.3,1.3c1.1,0.7,2.2,1.7,3,2.8c3.6,4.8,7.1,9.5,10.5,14.1
							c3.4,4.6,6.9,9.4,10.3,14.1c0.2,0.3,0.4,0.6,0.7,0.8c0.3,0.3,0.6,0.6,0.9,0.9c1.4,1.6,2.2,1.9,2.7,1.9c0.5,0,1.3-0.3,2.7-1.9
							c0.4-0.4,0.8-0.8,1.2-1.3c0.4-0.4,0.7-0.9,1-1.3c2.3-3.7,4.6-7.2,6.9-10.5c2.3-3.3,4.6-6.8,6.9-10.5c0.8-1.1,1.5-2.2,2.2-3.3
							c0.7-1.1,1.4-2.2,2.2-3.3c0.8-1.5,2.1-2.6,3.8-3.2c1.6-0.6,3.3-0.9,5.1-1.1c1.9-0.2,3.8-0.3,5.8-0.3c2,0,4,0,6,0.2
							c5.6,0.4,8.9,3,9.7,7.6c0.2,0.9,0.4,1.8,0.5,2.8c0.1,1,0.1,2,0,2.9l-0.3,20.9c-0.1,6.6-0.1,13.7-0.1,21.1c0,2.6,0,5.3,0.1,8
							l0.1,8.7c0,2.9,0.1,5.8,0.1,8.7c0.1,3,0.1,5.6,0.1,8c0.1,2.5-0.3,4.1-1.4,5.1c-1,0.9-3,1.5-6.1,1.7c-2,0.2-4,0.3-5.9,0.4
							c-1.9,0.1-3.9,0.1-5.9,0.1c-3.4-0.1-5.6-0.7-6.9-1.9c-1.3-1.2-2.1-3.1-2.3-5.8c-0.1-2.3-0.2-4.7-0.3-7.4
							c-0.1-2.7-0.2-5.4-0.3-8.2c-0.1-2.8-0.2-5.5-0.4-8.1c-0.1-2.7-0.3-5.2-0.4-7.5c0-0.2,0-0.3-0.1-0.5c0-0.1,0-0.2,0-0.2
							c0,0,0,0-0.1,0l-3.9,5.6c-1.3,1.9-2.7,3.9-4.1,5.9c-0.2,0.3-0.4,0.5-0.7,0.7c-0.2,0.2-0.3,0.3-0.3,0.5
							c-2.3,4-6.1,5.9-11.4,5.7c-1.6-0.2-3.1-0.2-4.7-0.1c-1.5,0.1-3.1,0.1-4.7,0.1c-1.8-0.1-3.3-0.5-4.5-1.2
							c-1.1-0.7-2.2-1.7-3-2.8c-1.6-2.3-3-4.7-4-7c-1-2.2-2.3-4.4-3.8-6.4c-0.9-1.2-1.4-1.5-1.6-1.6c-0.1,0.1-0.3,0.7-0.3,2.6v27.8
							c0,3.6-0.8,6.2-2.5,7.6c-1.7,1.4-4.6,2.2-9.1,2.3C276.6,588.3,275.8,588.3,275,588.3z M269.3,493.1c-0.8,0-1.7,0-2.5,0
							c-2.8,0.2-4.6,0.7-5.6,1.5c-0.9,0.8-1.5,2.4-1.6,4.6l0,0.8c0,10.8,0,20.7,0.1,30.2c0,9.8,0.1,20,0.1,30.1c0,1.3,0,2.8-0.1,4.5
							c-0.1,1.7-0.1,3.5-0.2,5.3l-0.3,5.3c-0.1,1.7-0.1,3.2-0.1,4.3c0,2,0.6,3.5,1.8,4.7c1.2,1.2,2.9,2,5.1,2.3
							c1.9,0.2,3.8,0.3,5.6,0.4c1.9,0.1,3.8,0.1,5.8,0.1c4.2-0.2,7-0.9,8.4-2.1c1.4-1.2,2.1-3.5,2.1-6.9v-27.8
							c0-2.5,0.4-3.1,0.7-3.4c0.2-0.2,0.4-0.2,0.7-0.2c0.7,0.1,1.5,0.7,2.4,2c1.5,2.1,2.8,4.3,3.9,6.6c1,2.2,2.4,4.5,3.9,6.8
							c0.8,1.1,1.7,1.9,2.7,2.6c1,0.6,2.3,1,4,1.1c1.6,0,3.1,0,4.7-0.1c1.6-0.1,3.2,0,4.8,0.1c4.9,0.2,8.3-1.4,10.4-5.1
							c0.1-0.2,0.3-0.5,0.5-0.8c0.2-0.2,0.4-0.4,0.6-0.6c1.4-2,2.7-3.9,4.1-5.8l4.1-5.9c0.1-0.1,0.2-0.2,0.4-0.2
							c0.3,0,0.5,0,0.6,0.1c0,0,0.1,0,0.1,0c0.3,0,0.5,0.2,0.5,0.5c0,0.1,0,0.3,0.1,0.5c0.1,0.3,0.1,0.5,0.1,0.7
							c0.1,2.3,0.2,4.8,0.4,7.5c0.1,2.6,0.3,5.4,0.4,8.2c0.1,2.8,0.2,5.5,0.3,8.2c0.1,2.7,0.2,5.2,0.3,7.4c0.2,2.4,0.8,4.1,1.9,5.1
							c1.1,1,3.2,1.5,6.3,1.6c1.9,0,3.9,0,5.8-0.1c1.9-0.1,3.8-0.2,5.8-0.4c3.6-0.3,5-1,5.5-1.5c0.8-0.7,1.1-2.2,1-4.3
							c0-2.4,0-5-0.1-8c-0.1-2.9-0.1-5.8-0.1-8.7l-0.1-8.7c0-2.7-0.1-5.4-0.1-8c0-7.4,0.1-14.5,0.1-21.1l0.3-20.9
							c0.1-0.9,0.1-1.8,0-2.7c-0.1-0.9-0.2-1.8-0.4-2.7c-0.8-4.2-3.7-6.4-8.8-6.8c-2-0.2-3.9-0.2-5.9-0.2c-1.9,0-3.9,0.1-5.7,0.3
							c-1.6,0.2-3.3,0.5-4.8,1.1c-1.5,0.5-2.6,1.4-3.3,2.8c-0.8,1.1-1.5,2.2-2.2,3.3c-0.7,1.1-1.4,2.2-2.2,3.3
							c-2.3,3.7-4.6,7.2-6.9,10.5c-2.3,3.3-4.6,6.8-6.9,10.5c-0.3,0.5-0.7,1-1.1,1.4c-0.4,0.4-0.8,0.9-1.2,1.3
							c-1.3,1.5-2.4,2.2-3.4,2.2c-1,0-2.1-0.7-3.4-2.2c-0.3-0.3-0.6-0.6-0.9-0.9c-0.3-0.3-0.6-0.6-0.8-1c-3.4-4.7-6.8-9.5-10.2-14.1
							c-3.4-4.6-7-9.3-10.5-14.1c-0.8-1.1-1.7-1.9-2.7-2.6c-1-0.6-2.3-1-3.8-1.2c-2.2-0.2-4.3-0.3-6.5-0.4
							C271.8,493.2,270.5,493.1,269.3,493.1z M336.4,547.6C336.4,547.6,336.4,547.6,336.4,547.6
							C336.4,547.6,336.4,547.6,336.4,547.6z"/>
					</g>
				</g>
				<g>
					<g>
						<path d="M418.2,588.4c-0.8,0-1.7,0-2.5-0.1c-4.2-0.2-8.3-1.1-12.3-2.6c-4-1.5-7.8-3.6-11.3-6.2c-4.3-3.4-7.9-7.1-10.5-11.2
							c-2.7-4.1-4.7-8.5-6-13.1c-2-7.1-2.6-14.1-1.8-20.9c0.8-6.8,3.1-13.6,6.9-20.1c2-3.1,4.3-6,6.9-8.6c2.6-2.6,5.5-5,8.8-7.1
							c3.9-2.3,8.1-4.1,12.3-5.1c4.3-1.1,8.6-1.5,12.8-1.3c4.2,0.2,8.4,1.1,12.5,2.7c4.1,1.5,8,3.7,11.6,6.4
							c4.4,3.4,8,7.2,10.6,11.3c2.6,4.1,4.6,8.6,5.9,13.3c0.6,2.2,1.1,4.3,1.4,6.3c0.3,2,0.5,3.6,0.7,4.8c0,0,0,0.1,0,0.1
							c0,6.8-0.9,13-2.6,18.6c-1.8,5.5-4.6,10.8-8.4,15.7c-3.4,4.6-7.7,8.4-12.9,11.4c-3.9,2.2-8,3.8-12.2,4.7
							C424.9,588,421.5,588.4,418.2,588.4z M419.3,493c-3.4,0-6.8,0.4-10.3,1.3c-4.2,1.1-8.2,2.8-12.1,5c-3.2,2-6.2,4.4-8.6,7
							c-2.5,2.6-4.8,5.4-6.8,8.4c-3.7,6.4-6,13-6.8,19.7c-0.8,6.7-0.2,13.6,1.8,20.5c1.3,4.6,3.2,8.9,5.8,12.9
							c2.6,4,6.1,7.6,10.3,11c3.4,2.6,7.1,4.6,11,6.1c3.9,1.5,7.9,2.3,12,2.5c4.1,0.2,8.2-0.1,12.3-1.1c4.1-0.9,8.1-2.5,11.9-4.6
							c5-2.9,9.2-6.6,12.6-11.1c3.7-4.8,6.5-10,8.2-15.4c1.7-5.4,2.6-11.6,2.6-18.2c-0.2-1.2-0.4-2.8-0.7-4.8c-0.3-2-0.7-4-1.3-6.2
							c-1.3-4.6-3.2-9-5.8-13c-2.6-4-6-7.7-10.4-11c-3.5-2.7-7.3-4.8-11.3-6.3c-4-1.5-8.1-2.4-12.2-2.6
							C420.8,493,420.1,493,419.3,493z M420.5,566.3c-0.1,0-0.1,0-0.2,0c-2.9,0-5.7-1.1-8.2-3c-2.3-1.9-4.4-4.4-6.1-7.3
							c-1.4-2.3-2.4-4.7-3-7.1c-0.6-2.5-0.8-4.9-0.6-7.3c-0.3-6.6,1.3-12.6,4.7-17.9c0.8-1.2,1.8-2.4,2.9-3.5c1.1-1.1,2.4-2.1,3.8-3
							c2.3-1.2,4.6-1.7,6.9-1.7c2.3,0,4.5,0.7,6.5,2.1c1.2,0.9,2.4,1.8,3.4,2.7c1.1,1,2,2,2.6,3.2c7.4,11.7,7.4,23.7-0.2,35.5
							c-0.5,0.9-1.2,1.8-2.1,2.5c-0.9,0.7-1.8,1.4-2.7,2.1C426,565.3,423.4,566.3,420.5,566.3z M420.5,516.5c-2,0-4.1,0.5-6.1,1.6
							c-1.3,0.8-2.6,1.8-3.6,2.8c-1.1,1-2,2.2-2.8,3.3c-3.3,5.1-4.8,10.9-4.6,17.3c0,0,0,0,0,0.1c-0.2,2.2,0,4.6,0.6,7
							c0.6,2.4,1.6,4.7,2.9,6.9c1.7,2.8,3.6,5.2,5.9,7.1c2.3,1.8,4.8,2.8,7.5,2.8c2.7,0,5.2-0.8,7.4-2.6c0.9-0.6,1.8-1.3,2.6-2
							c0.8-0.7,1.4-1.4,1.9-2.3c7.3-11.4,7.4-23,0.2-34.4c-0.6-1.1-1.4-2.1-2.4-2.9c-1-0.9-2.2-1.8-3.3-2.7c-1.9-1.2-3.9-1.8-6-1.9
							C420.6,516.5,420.6,516.5,420.5,516.5z"/>
					</g>
				</g>
				<g>
					<g>
						<path d="M555.1,588.3c-1.8,0-3.5-0.7-5.1-2c-0.8-0.7-1.5-1.5-2.1-2.2c-0.6-0.7-1.2-1.3-1.9-2.1c-0.1,0-0.2,0.1-0.2,0.1
							c-0.2,0.1-0.3,0.2-0.4,0.3c-2.1,1.7-4.4,3-7,3.7c-2.5,0.7-5.3,1.2-8.1,1.3c-1.5,0.1-3,0-4.4-0.1c-1.4-0.1-2.9-0.2-4.4-0.3
							c-2.8-0.2-5.7-0.8-8.6-2c-2.9-1.1-5.6-2.7-8-4.6c-2.5-1.9-4.6-4.1-6.4-6.6c-1.8-2.5-3-5.2-3.5-8c-0.5-2.3-0.4-4.6,0.3-6.8
							c0.7-2.1,1.7-4.2,2.9-6.3c1.3-2.1,2.9-4,4.8-5.7c1.9-1.7,4-3.3,6.1-4.8c0.3-0.2,0.6-0.4,0.9-0.6c0.2-0.2,0.4-0.3,0.7-0.5
							c-0.6-0.8-1.2-1.6-1.8-2.4c-0.7-0.9-1.3-1.9-1.9-2.9c-1.1-1.8-1.8-3.7-1.9-5.6c-0.1-1.9,0.2-3.7,0.9-5.5
							c0.7-1.7,1.9-3.3,3.5-4.7c1.6-1.4,3.5-2.6,5.8-3.5c1.7-0.7,3.5-1,5.3-1.2c1.8-0.1,3.6-0.1,5.3,0.2c7,0.5,13.7,2.1,20,4.7
							c1.2,0.5,2.3,1.2,3.1,2.1c0.8,0.9,1.5,2,1.8,3.1c0.3,1.1,0.4,2.3,0.3,3.5c-0.2,1.2-0.6,2.3-1.3,3.4c-0.2,0.3-0.5,0.6-0.8,0.9
							c-0.3,0.3-0.6,0.5-0.9,0.8c-0.8,0.8-1.6,1.4-2.2,1.8c-0.7,0.4-1.4,0.7-2.1,0.7c-0.7,0.1-1.4,0-2.2-0.3
							c-0.7-0.3-1.6-0.7-2.7-1.2c-1.2-0.6-2.5-1.3-3.7-1.9c-1.3-0.6-2.6-1.2-3.8-1.7c-0.5-0.2-1.2-0.4-1.9-0.4
							c-0.7-0.1-1.5-0.1-2.2-0.1c-0.5,0-0.8,0-1,0.2c0,0.1-0.1,0.2,0.2,0.6c0.3,0.3,0.6,0.7,1,1l1.1,0.9c0.7,0.4,1.4,0.9,2.1,1.3
							c0.7,0.4,1.4,0.9,2.2,1.5c1.5,1.1,2.4,2.5,2.7,4.2c0.3,1.7,0,3.2-0.9,4.5c-0.9,1.5-2.5,2.4-4.7,2.7c-1,0.1-2.1,0.2-3.1,0.4
							c-1,0.1-2.1,0.3-3.2,0.5c-2.2,0.4-4.2,1.2-5.7,2.2c-1.6,1-2.9,2.3-4.1,3.8c-1.3,1.8-1.8,3.7-1.6,5.8c0.2,2.1,1.2,4.1,2.9,5.8
							c1.7,1.8,3.9,2.9,6.4,3.4c2.5,0.5,5.1,0.4,7.6-0.1c2.2-0.5,3.8-1.6,4.8-3.2c0.9-1.5,1.2-3.1,0.6-4.7h-2.5
							c-1.5-0.1-2.5-0.3-3.1-0.7c-0.6-0.4-1-1.1-1.4-2.2c-0.9-2.8-0.5-5.2,1.2-7.2c1.6-1.9,4.2-3.1,7.6-3.4c3-0.3,6.1-0.5,9.2-0.4
							c3,0.1,6.1,0.5,9.2,1.3c1.2,0.4,2.3,0.9,3.2,1.6c0.9,0.7,1.6,1.5,2.1,2.4c0.5,0.9,0.8,1.9,0.9,2.9c0.1,1-0.1,2-0.6,3
							c-0.9,1.7-2.5,2.8-4.8,3.3c-0.4,0.1-0.8,0.2-1.3,0.2c-0.3,0-0.5,0-0.8,0.1c0.5,2.1,1.3,4,2.3,5.8c1.1,1.9,2.6,3.8,4.4,5.5
							l2.2,2.1c0.7,0.7,1.5,1.4,2.2,2c1.4,1.2,1.6,2.7,0.6,4.3c-0.7,1-1.5,1.9-2.5,2.7c-1,0.7-2.1,1.4-3.3,2.1
							C557.7,588,556.3,588.3,555.1,588.3z M546.1,580.9c0.1,0,0.3,0.1,0.4,0.1c0.8,0.8,1.5,1.6,2.2,2.4c0.6,0.7,1.3,1.5,2,2.1
							c2.3,2,4.9,2.2,7.9,0.9c1.2-0.6,2.3-1.3,3.2-2c0.9-0.7,1.7-1.5,2.3-2.5c0.7-1.2,0.6-2.1-0.5-3c-0.7-0.6-1.5-1.3-2.2-2
							l-2.2-2.1c-1.8-1.8-3.4-3.7-4.6-5.7c-1.2-2-2-4.2-2.6-6.6c-0.1-0.3,0.1-0.5,0.4-0.6c0.5-0.1,1-0.2,1.5-0.2
							c0.4,0,0.8-0.1,1.1-0.2c2.1-0.4,3.4-1.4,4.2-2.8c0.4-0.8,0.6-1.6,0.5-2.4c-0.1-0.9-0.3-1.7-0.8-2.5c-0.4-0.8-1.1-1.5-1.8-2.1
							c-0.8-0.6-1.7-1.1-2.8-1.4c-3-0.8-6-1.2-9-1.3c-3-0.1-6,0.1-9,0.4c-3.2,0.3-5.5,1.4-7,3.1c-1.4,1.7-1.7,3.7-1,6.2
							c0.3,0.9,0.7,1.5,1.1,1.7c0.3,0.2,0.9,0.4,2.5,0.5l2.8,0c0.2,0,0.4,0.1,0.5,0.3c0.8,2.1,0.6,4.1-0.6,5.9
							c-1.2,1.9-3,3.1-5.4,3.6c-2.7,0.6-5.4,0.6-8,0.1c-2.7-0.5-5-1.7-6.9-3.7c-1.8-1.9-2.9-4-3.1-6.4c-0.3-2.4,0.3-4.6,1.8-6.5
							c1.2-1.6,2.6-3,4.3-4.1c1.7-1.1,3.7-1.9,6.1-2.4c1.1-0.2,2.2-0.3,3.2-0.5c1.1-0.1,2.1-0.3,3.1-0.4c1.9-0.3,3.2-1,4-2.2
							c0.7-1.1,1-2.4,0.7-3.8c-0.2-1.4-1-2.6-2.3-3.6c-0.7-0.5-1.4-1-2.1-1.4c-0.7-0.4-1.4-0.9-2.1-1.4l-1.2-0.9
							c-0.4-0.3-0.8-0.7-1.1-1.1c-0.8-0.8-0.5-1.5-0.3-1.8c0.4-0.5,1-0.7,1.8-0.6c0.7,0,1.5,0,2.2,0.1c0.8,0.1,1.5,0.3,2.1,0.5
							c1.3,0.5,2.6,1.1,3.9,1.7c1.3,0.6,2.5,1.2,3.8,1.9c1,0.5,1.8,0.9,2.6,1.2c0.7,0.2,1.3,0.3,1.8,0.3c0.5-0.1,1.1-0.2,1.6-0.6
							c0.6-0.4,1.3-0.9,2-1.6c0.3-0.3,0.6-0.6,0.9-0.8c0.3-0.2,0.5-0.5,0.7-0.8c0.6-0.9,1-1.9,1.1-2.9c0.1-1.1,0.1-2.1-0.3-3.1
							c-0.3-1-0.8-1.9-1.6-2.7c-0.7-0.8-1.7-1.4-2.8-1.9c-6.2-2.5-12.8-4.1-19.7-4.6c-1.7-0.2-3.5-0.3-5.2-0.2
							c-1.7,0.1-3.4,0.5-5,1.1c-2.2,0.9-4,2-5.5,3.3c-1.5,1.3-2.5,2.8-3.2,4.4c-0.7,1.6-0.9,3.3-0.8,5c0.1,1.7,0.7,3.5,1.7,5.1
							c0.6,1,1.2,1.9,1.8,2.8c0.7,0.9,1.3,1.8,2,2.7c0.1,0.1,0.1,0.2,0.1,0.3c0,0.4-0.2,0.6-0.4,0.7c-0.3,0.2-0.6,0.4-0.8,0.6
							c-0.3,0.2-0.6,0.4-0.9,0.6c-2.1,1.5-4.2,3.1-6,4.7c-1.8,1.6-3.4,3.4-4.6,5.4c-1.2,2-2.2,4-2.8,6.1c-0.7,2-0.7,4.1-0.3,6.3
							c0.5,2.7,1.6,5.2,3.3,7.6c1.7,2.4,3.8,4.5,6.2,6.3c2.4,1.8,5,3.3,7.8,4.4c2.8,1.1,5.5,1.8,8.2,1.9c1.5,0.1,3,0.1,4.5,0.3
							c1.4,0.1,2.9,0.1,4.3,0.1c2.8-0.1,5.4-0.5,7.9-1.2c2.4-0.7,4.7-1.9,6.6-3.5c0.2-0.1,0.3-0.3,0.5-0.4c0.2-0.1,0.4-0.2,0.6-0.4
							C545.9,580.9,546,580.9,546.1,580.9z"/>
					</g>
				</g>
				<g>
					<g>
						<path d="M640.9,588.7c-3.5,0-6.9-0.3-10.3-0.9c-4.4-0.8-8.6-2.1-12.5-3.8c-4-1.7-7.5-4-10.5-6.6c-3.6-3.2-6.7-6.9-9.3-11.1
							c-2.6-4.1-4.5-8.5-5.8-13.1c-1.3-4.5-2-9.2-2-13.9c-0.1-4.7,0.6-9.3,1.8-13.8c1.3-4.5,3.2-8.7,5.8-12.6c2.6-3.9,6-7.4,10-10.4
							c4.8-3.6,10-6.3,15.6-8c5.5-1.7,11.1-2.6,16.5-2.7c5.5-0.1,10.8,0.6,15.9,2c5.1,1.4,9.6,3.5,13.5,6.2c3.9,2.7,7.2,6.1,9.6,10
							c2.5,3.9,3.8,8.4,4,13.2c0.1,2-0.4,3.5-1.4,4.4c-1,0.9-2.7,1.7-5.4,2.5c-2,0.5-4.1,0.8-6.1,0.9c-2,0.1-4,0.1-6,0.1
							c-4.4-0.1-7.3-1.5-8.7-4.3c-0.3-0.7-0.6-1.3-0.9-2.1c-0.3-0.7-0.6-1.4-1-2.1c-1.3-2.5-3.1-4.3-5.3-5.4
							c-4.5-2.2-9.5-2.2-14.6-0.2c-2.5,1-4.8,2.4-6.7,4.2c-2.8,2.6-4.8,5.7-5.9,9.4c-1.1,3.7-1.6,7.5-1.3,11.4
							c0.2,3.8,1.1,7.5,2.6,10.9c1.5,3.4,3.4,6.2,5.9,8.3c2.1,1.9,4.4,3.1,6.9,3.7c2.5,0.6,4.8,0.7,7,0.2c2.2-0.4,4.1-1.3,5.7-2.6
							c1.4-1.1,2.4-2.5,3-4.2c-1.9,0.1-3.7,0.2-5.4,0.2c-1.9,0-3.8,0.1-5.6,0.2c-4,0.2-6.7,0-8.2-0.9c-1.5-0.9-2.5-2.8-2.8-5.8
							c-0.2-2.9-0.2-5.9,0-8.8c0.1-3.1,2.3-4.8,6.6-5.1c2.5-0.2,5-0.3,7.4-0.4c2.4-0.1,4.8-0.2,7.2-0.4l11.1,0
							c3.7,0,7.4,0.1,11.2,0.2c3.9,0.1,6.7,0.7,8.4,1.9c1.7,1.2,2.7,3.2,2.9,5.9c0.9,8.9-1.2,17.6-6.4,25.9
							c-2.2,3.6-5.1,6.7-8.6,9.2c-3.5,2.5-7.3,4.4-11.4,5.7c-4.1,1.3-8.5,2.1-13.1,2.4C643,588.6,642,588.7,640.9,588.7z
							 M641.4,492.9c-0.4,0-0.8,0-1.2,0c-5.4,0.1-10.8,1-16.2,2.7c-5.4,1.7-10.5,4.3-15.3,7.8c-3.9,2.9-7.2,6.3-9.8,10.1
							c-2.6,3.8-4.5,7.9-5.7,12.3c-1.2,4.4-1.8,8.9-1.8,13.5c0,4.6,0.7,9.2,2,13.6c1.3,4.4,3.2,8.7,5.7,12.8c2.5,4,5.6,7.7,9.1,10.8
							c2.9,2.6,6.4,4.8,10.3,6.4c3.9,1.7,8,2.9,12.3,3.7c4.3,0.8,8.7,1.1,13.2,0.8c4.5-0.2,8.8-1,12.8-2.3c4-1.3,7.8-3.2,11.2-5.6
							c3.4-2.4,6.2-5.4,8.3-8.9c5-8.1,7.1-16.6,6.2-25.3c-0.2-2.4-1-4.2-2.5-5.2c-1.5-1.1-4.1-1.7-7.8-1.8
							c-3.8-0.2-7.6-0.2-11.2-0.2h-11.1c-2.4,0.2-4.8,0.3-7.2,0.4c-2.4,0.1-4.9,0.2-7.3,0.4c-3.7,0.3-5.6,1.7-5.7,4.2
							c-0.2,2.9-0.2,5.9,0,8.7c0.3,2.6,1.1,4.3,2.3,5c1.3,0.7,3.9,1,7.7,0.8c1.9-0.2,3.8-0.2,5.7-0.2c1.9,0,3.9-0.1,6.1-0.2
							c0.2,0,0.3,0.1,0.4,0.2c0.1,0.1,0.1,0.3,0.1,0.5c-0.6,2.2-1.8,4-3.6,5.4c-1.8,1.4-3.8,2.3-6.1,2.8c-2.3,0.5-4.8,0.4-7.4-0.2
							c-2.6-0.6-5.1-1.9-7.3-3.9c-2.5-2.2-4.6-5.1-6.1-8.6c-1.5-3.5-2.4-7.3-2.7-11.2c-0.3-4,0.2-7.9,1.4-11.7
							c1.2-3.9,3.3-7.2,6.2-9.9c2-1.9,4.4-3.3,7-4.3c5.3-2,10.7-2.1,15.4,0.3c2.4,1.2,4.3,3.1,5.8,5.8c0.4,0.7,0.8,1.5,1.1,2.2
							c0.3,0.7,0.6,1.4,0.9,2c1.2,2.4,3.8,3.7,7.8,3.8c2,0.1,4,0.1,5.9-0.1c2-0.1,3.9-0.4,5.9-0.9c2.5-0.7,4.2-1.4,5-2.2
							c0.8-0.7,1.1-1.9,1-3.6c-0.2-4.7-1.5-9-3.9-12.7c-2.4-3.8-5.5-7-9.4-9.7c-3.8-2.6-8.3-4.7-13.2-6.1
							C651.1,493.5,646.3,492.9,641.4,492.9z"/>
					</g>
				</g>
				<g>
					<g>
						<path d="M718.6,588.5c-6.1,0-12-0.3-17.7-1c-2.3-0.2-4.2-1-5.6-2.3c-1.4-1.3-2.2-2.9-2.3-4.9c-0.5-13-0.8-25.8-0.9-38
							c-0.1-12.2-0.2-23.7-0.3-34.4c0-1.7,0.1-3.4,0.2-5.1c0.1-1.8,0.4-3.4,1-4.9c0.6-1.5,1.5-2.8,2.9-3.8c1.3-1,3.3-1.5,5.7-1.6
							c2.6-0.1,5.2-0.1,7.8-0.1c2.5,0,5.2,0,7.8-0.1c1.7,0,3.3,0,4.9-0.1l4.7-0.2c3.2-0.2,6.3-0.3,9.4-0.5c3-0.2,6.1-0.3,9.1-0.4
							c0,0,0,0,0,0c2,0,4,0.4,6.1,1.2c2.2,0.8,3.6,2,4.3,3.6c1.7,4.2,2.1,8.4,1.1,12.4c-0.3,1.8-1.2,3.5-2.8,4.9
							c-1.5,1.4-3.9,2.1-6.9,1.9c-2.6-0.2-5.1-0.3-7.6-0.4l-7.6-0.2c-3.5,0-6.2,0.2-7.8,0.5c-1.6,0.2-2.8,0.6-3.4,1.2
							c-0.7,0.6-1.1,1.4-1.3,2.4c-0.2,1.1-0.3,2.6-0.3,4.3c0,1.8,0,4-0.1,6.7c0,1.1,0.6,1.8,1.8,2.1c1.4,0.3,2.8,0.5,4.1,0.5h7.3
							c2.3,0,4.6,0.1,6.9,0.4c1.5,0.2,2.7,0.6,3.7,1.3c1.1,0.7,1.7,1.8,1.8,3.2c0.1,1.5,0.2,3.1,0.4,4.8c0.1,1.6,0.2,3.2,0.1,4.9
							c-0.2,3.9-2.9,5.9-8,5.9c-1.2,0-2.4,0-3.6-0.1c-1.2-0.1-2.3-0.2-3.4-0.2c-1.3-0.1-2.6-0.1-3.8-0.2c-1.2,0-2.5,0-3.8,0.1
							c-1.5,0.1-2.1,0.4-2.4,0.6c-0.4,0.3-0.5,0.8-0.5,1.7c0,1.3,0,2.7-0.1,4c-0.1,1.3,0,2.6,0.1,4.1c0.1,1.4,0.4,2.4,0.9,2.7
							c0.4,0.3,1.3,0.6,3.7,0.6c3.9,0,7,0,9.6-0.1c2.6,0,4.8-0.1,6.6-0.1c1.8,0,3.3-0.1,4.5-0.2c1.3-0.1,2.5-0.1,3.7-0.1
							c3.5-0.1,6,0.6,7.5,2.1c1.2,1.1,1.8,2.6,1.8,4.5c0.1,2.1,0.1,3.9-0.1,5.4l-0.5,5.3c-0.4,3.1-2.7,4.7-6.8,4.9
							c-9.1,0.2-17.8,0.4-25.8,0.7C722.5,588.5,720.5,588.5,718.6,588.5z M706.8,493.6c-1.7,0-3.5,0-5.2,0.1c-2.3,0.1-4,0.5-5.2,1.4
							c-1.2,0.9-2,2-2.5,3.3c-0.5,1.4-0.8,2.9-0.9,4.6c-0.1,1.7-0.1,3.4-0.1,5.1c0.1,10.7,0.2,22.1,0.3,34.4
							c0.1,12.1,0.4,24.9,0.9,37.9c0.1,1.7,0.7,3.1,2,4.2c1.3,1.1,3,1.8,5,2c7.4,0.9,15.3,1.2,23.3,0.9c8.1-0.3,16.7-0.5,25.8-0.7
							c3.5-0.1,5.4-1.5,5.8-4l0.5-5.2c0.1-1.5,0.2-3.3,0.1-5.3c0-1.7-0.5-2.9-1.5-3.8c-1.3-1.3-3.6-1.9-6.8-1.8c0,0,0,0,0,0
							c-1.2,0-2.4,0-3.6,0.1c-1.3,0.1-2.8,0.1-4.6,0.2c-1.8,0-4,0.1-6.6,0.1c-2.6,0-5.7,0.1-9.6,0.1c-2.1,0-3.5-0.3-4.3-0.8
							c-0.8-0.6-1.2-1.7-1.3-3.5c-0.1-1.5-0.1-2.9-0.1-4.2c0-1.3,0.1-2.7,0.1-4c0-1.2,0.3-2,1-2.5c0.6-0.4,1.5-0.7,3-0.8
							c1.3-0.1,2.6-0.1,3.9-0.1c1.3,0,2.5,0.1,3.8,0.2c1.1,0.1,2.2,0.2,3.4,0.2c1.2,0.1,2.4,0.1,3.6,0.1c4.5,0,6.8-1.6,7-4.9
							c0.1-1.6,0.1-3.2-0.1-4.7c-0.2-1.7-0.3-3.3-0.4-4.8c-0.1-1.1-0.5-1.9-1.4-2.5c-0.9-0.6-2-1-3.3-1.1c-2.3-0.2-4.6-0.4-6.8-0.4
							h-7.3c-1.4,0-2.9-0.2-4.4-0.6c-1.7-0.4-2.5-1.5-2.5-3.1c0.1-2.7,0.1-4.9,0.1-6.6c-0.1-1.8,0.1-3.3,0.3-4.5
							c0.3-1.3,0.8-2.3,1.7-3c0.8-0.7,2.1-1.2,3.9-1.4c1.7-0.3,4.4-0.5,8-0.5l7.6,0.2c2.5,0.1,5.1,0.2,7.6,0.4
							c2.7,0.2,4.8-0.4,6.1-1.7c1.4-1.3,2.2-2.8,2.5-4.4c1-3.8,0.6-7.8-1-11.8c-0.5-1.3-1.8-2.3-3.7-3c-2-0.7-3.9-1.1-5.7-1.1
							c-3,0.1-6,0.2-9,0.4c-3,0.2-6.2,0.3-9.4,0.5l-4.7,0.2c-1.5,0.1-3.2,0.1-4.9,0.1c-2.6,0.1-5.2,0.1-7.8,0.1
							C708.5,493.6,707.6,493.6,706.8,493.6z"/>
					</g>
				</g>
				<g>
					<g>
						<path d="M784.6,588.3c-2-0.1-3.9-0.1-5.8-0.2c-1.9,0-3.7-0.1-5.6-0.2c-5.8-0.4-8.8-2.9-9.2-7.4c-0.1-1.5-0.1-3.1,0-4.6
							l0.8-13.6c0.2-3.1,0.3-6.1,0.5-9.2c0.2-4.5,0.4-9.1,0.7-13.5c0.2-4.5,0.4-9,0.4-13.4c0.1-4.2,0-8.6-0.1-13.1
							c-0.2-4.5-0.4-8.9-0.6-13.1c-0.2-2.7,0.2-4.6,1.2-5.8c1.1-1.2,3.2-1.9,6.6-2c4.6-0.2,9.6,0,14.8,0.6c1.8,0.2,3.3,0.8,4.6,1.8
							c1.2,1,2.4,2.1,3.5,3.3c0.9,1,1.7,2,2.5,3c0.8,1,1.5,2.1,2.3,3.2c3.4,5.4,7,11.2,10.7,17.2c3.4,5.5,6.9,10.6,10.6,15.2
							c0-1.6,0-3.3,0.1-4.9c0-2.1,0-4.2-0.1-6.3c0-3.9-0.1-8.1-0.2-12.6c-0.1-4.5-0.1-8.7-0.1-12.5c0-4.2,2.7-6.7,7.9-7.4
							c4.8-0.8,9.8-0.8,14.4,0.1c2.6,0.4,4.5,1.2,5.9,2.4c1.4,1.2,2.2,2.9,2.4,5.1c0.2,2.4,0.3,5.2,0.4,8.4c0,3.2,0.1,6,0.1,8.4
							c0.2,4,0.3,8.2,0.3,12.2v12.2c0.1,2.8,0.1,5.7,0.1,8.5c0,2.9,0.1,5.7,0.1,8.5c0.1,3.5,0.2,7,0.3,10.4l0.3,10.2
							c0,1.7-0.3,3.2-0.8,4.6c-0.6,1.5-1.9,2.5-4.1,3c-3.2,0.8-6.3,1.2-9.1,1.2h-8.5c-2.3,0.2-4.3-0.2-5.9-1
							c-1.6-0.8-2.9-2.1-3.9-3.6c-0.5-0.8-1-1.6-1.5-2.3c-0.5-0.8-1-1.5-1.4-2.2c-1.6-3.3-3.4-6.6-5.4-9.7c-2-3.1-4.3-6.1-6.9-9
							c-2.6-2.8-4.9-5.7-6.9-8.7c-2-3-4.2-5.9-6.5-8.6c-0.2-0.1-0.3-0.3-0.4-0.5c0.3,5.3,0.6,10.6,0.8,15.7
							c0.2,5.3,0.5,10.8,0.7,16.2c0.1,1.5,0.1,3.1,0,4.6c-0.1,1.5-0.2,3-0.3,4.4c-0.2,2.8-2,4.5-5.4,4.9c-0.7,0.2-1.4,0.3-2.1,0.4
							C786,588.3,785.3,588.3,784.6,588.3z M777.4,493.2c-1.3,0-2.5,0-3.8,0.1c-3,0.2-5,0.7-5.9,1.7c-0.9,1-1.2,2.7-1,5.1
							c0.2,4.2,0.4,8.6,0.6,13.1c0.2,4.5,0.2,8.9,0.1,13.1c0,4.4-0.1,8.9-0.4,13.4c-0.3,4.5-0.5,9-0.7,13.5c-0.2,3-0.4,6.1-0.5,9.2
							l-0.8,13.7c-0.1,1.4-0.1,2.9,0,4.4c0.3,4,3,6.1,8.2,6.5c1.9,0.1,3.7,0.1,5.6,0.2c1.8,0,3.8,0.1,5.8,0.2c0.6,0,1.3,0,2-0.1
							c0.7-0.1,1.4-0.2,2-0.3c2.9-0.4,4.4-1.7,4.6-4c0.1-1.4,0.2-2.9,0.3-4.4c0.1-1.5,0.1-3,0-4.5c-0.2-5.4-0.4-10.8-0.7-16.2
							c-0.2-5.3-0.5-10.8-0.8-16.3c0-0.1,0-0.3,0.1-0.4c0.1-0.2,0.4-0.2,0.5-0.2c0.2-0.1,0.5-0.2,0.8,0c0.3,0.2,0.4,0.4,0.5,0.6
							c0,0,0,0.1,0.2,0.2c2.5,2.9,4.7,5.8,6.7,8.8c2,3,4.3,5.9,6.8,8.6c2.6,2.9,5,5.9,7,9.1c2,3.2,3.9,6.5,5.5,9.8
							c0.4,0.7,0.8,1.4,1.3,2.2c0.5,0.8,1,1.5,1.5,2.3c0.9,1.4,2.1,2.5,3.6,3.3c1.4,0.7,3.2,1.1,5.4,0.9l8.6,0
							c2.7,0,5.7-0.4,8.9-1.2c1.9-0.4,3-1.1,3.4-2.3c0.5-1.3,0.7-2.7,0.7-4.3l-0.3-10.2c-0.1-3.4-0.2-6.8-0.3-10.4
							c-0.1-2.8-0.1-5.6-0.1-8.5c0-2.8-0.1-5.7-0.1-8.5l0-12.2c0-4-0.1-8.1-0.3-12.2c0-2.5,0-5.3-0.1-8.5c-0.1-3.1-0.2-5.9-0.4-8.3
							c-0.2-1.9-0.9-3.4-2.1-4.5c-1.2-1-3-1.8-5.4-2.2c-4.6-0.9-9.3-0.9-14.1-0.1c-4.8,0.7-7.1,2.8-7.1,6.5c0,3.8,0.1,8,0.1,12.5
							c0.1,4.5,0.1,8.8,0.1,12.6c0.1,2.1,0.1,4.2,0.1,6.4c0,2.1-0.1,4.2-0.1,6.3c0,0.2-0.1,0.4-0.3,0.5c-0.2,0.1-0.4,0-0.6-0.2
							c-4-4.9-7.9-10.5-11.5-16.4c-3.7-6-7.3-11.8-10.7-17.2c-0.8-1.1-1.6-2.1-2.3-3.1c-0.7-1-1.6-1.9-2.4-2.9
							c-1.1-1.2-2.2-2.2-3.4-3.2c-1.1-0.9-2.5-1.4-4.1-1.6C784.5,493.4,780.8,493.2,777.4,493.2z"/>
					</g>
				</g>
				<g>
					<g>
						<path d="M875.8,588.3c-2.3,0-4.6-0.1-6.8-0.3c-2.3-0.2-4.1-0.9-5.3-2.2c-1.2-1.3-1.8-2.9-1.8-4.8c-0.1-5.7,0-12.1,0.2-19.1
							c0.2-7,1-14,2.2-21c1.2-7,3.1-13.7,5.6-20c2.5-6.3,6.1-11.8,10.6-16.2c3.4-3.4,7.4-6.2,11.8-8.5c4.4-2.3,9.3-3.5,14.4-3.8
							c4.5-0.2,8.7,0.3,12.5,1.5c3.7,1.3,7.1,3.1,10,5.3c2.9,2.3,5.5,5,7.7,8.1c2.1,3,4,6.2,5.6,9.5c1.5,3.2,2.8,6.5,3.8,9.7
							c0.9,3.2,1.6,6.2,2,8.8c1.1,7.3,1.7,14.5,1.7,21.6c0,7.1-0.2,14.3-0.6,21.6c-0.2,1.9-0.7,3.7-1.4,5.5c-0.8,1.9-2.5,3-5.2,3.4
							c-2.4,0.2-4.9,0.3-7.3,0.4c-2.5,0.1-5,0.1-7.6,0.1c-2.8-0.1-4.6-0.6-5.7-1.6c-1.1-1-1.7-2.7-2-5.3c-0.2-1.7-0.4-3.2-0.6-4.7
							c-0.2-1.3-0.4-2.7-0.5-4c-4.6,0.2-9.1,0.4-13.3,0.6c-4.4,0.2-8.8,0.3-13.2,0.5c-0.2,1.2-0.4,2.4-0.5,3.5
							c-0.2,1.2-0.3,2.5-0.4,3.8c-0.2,2.3-1.2,4.1-2.8,5.2c-1.6,1.1-3.6,1.9-6,2.2C880.4,588.2,878.1,588.3,875.8,588.3z
							 M908.9,493.4c-0.7,0-1.4,0-2.1,0.1c-5,0.2-9.7,1.5-14,3.7c-4.3,2.2-8.2,5-11.5,8.3c-4.4,4.3-7.9,9.7-10.4,15.9
							c-2.5,6.2-4.3,12.9-5.5,19.8c-1.2,6.9-1.9,14-2.2,20.9c-0.2,7-0.3,13.4-0.2,19.1c0,1.7,0.5,3,1.5,4.1c1,1.1,2.5,1.7,4.6,1.9
							c4.4,0.4,9,0.4,13.5,0c2.2-0.3,4-1,5.5-2c1.4-1,2.2-2.5,2.4-4.5c0.1-1.4,0.3-2.7,0.5-3.9c0.2-1.2,0.4-2.5,0.6-3.9
							c0-0.2,0.2-0.4,0.5-0.4c4.6-0.2,9.1-0.3,13.6-0.5c4.4-0.2,9-0.4,13.8-0.6c0.3,0,0.5,0.2,0.5,0.4c0.2,1.5,0.4,3,0.6,4.5
							c0.2,1.5,0.4,3.1,0.6,4.7c0.2,2.3,0.7,3.8,1.6,4.7c0.9,0.8,2.6,1.3,5.1,1.4c2.5,0,5.1,0,7.5-0.1c2.4-0.1,4.9-0.2,7.2-0.4
							c2.3-0.3,3.7-1.2,4.4-2.7c0.7-1.7,1.1-3.4,1.3-5.2c0.4-7.2,0.6-14.4,0.6-21.5c0-7-0.6-14.3-1.6-21.5c-0.4-2.6-1.1-5.5-2-8.7
							c-0.9-3.2-2.2-6.4-3.7-9.6c-1.5-3.2-3.4-6.3-5.5-9.3c-2.1-3-4.6-5.6-7.5-7.9c-2.8-2.2-6.1-4-9.7-5.2
							C915.8,493.9,912.5,493.4,908.9,493.4z M891.8,552.7c-0.3,0-0.5-0.2-0.5-0.5c-0.1-1.5,0-3.4,0.3-5.6c0.3-2.1,0.7-4.4,1.3-6.6
							c0.5-2.3,1.2-4.6,2-6.9c0.8-2.3,1.7-4.4,2.8-6.3c1.1-1.9,2.2-3.5,3.4-4.8c1.3-1.4,2.6-2.2,4-2.4c2.3-0.4,4.6,0.8,7,3.8
							c2.3,2.8,4,7.4,5,13.5c0.4,2.6,0.7,5.1,0.8,7.6c0.1,2.5,0.2,4.7,0.2,6.6c0,0.3-0.2,0.5-0.5,0.5c-4.3,0.2-8.5,0.3-12.7,0.5
							C900.8,552.3,896.4,552.5,891.8,552.7C891.8,552.7,891.8,552.7,891.8,552.7z M906,520.5c-0.2,0-0.5,0-0.7,0.1
							c-1.2,0.2-2.4,0.9-3.5,2.1c-1.2,1.2-2.3,2.8-3.3,4.6c-1,1.8-2,3.9-2.7,6.1c-0.8,2.3-1.5,4.5-2,6.8c-0.5,2.2-1,4.4-1.3,6.5
							c-0.3,1.9-0.4,3.5-0.3,4.9c4.4-0.2,8.7-0.3,12.7-0.5c4-0.2,8.1-0.4,12.2-0.5c0-1.8-0.1-3.8-0.2-6.1c-0.1-2.4-0.4-4.9-0.8-7.5
							c-1-5.9-2.6-10.3-4.8-13.1C909.5,521.7,907.7,520.5,906,520.5z M917.7,551.1L917.7,551.1L917.7,551.1z"/>
					</g>
				</g>
			</g>
		</g>
	</g>
</g>
</svg>
