<?xml version="1.0" encoding="utf-8"?>
<!-- Generator: Adobe Illustrator 24.3.0, SVG Export Plug-In . SVG Version: 6.00 Build 0)  -->
<svg version="1.1" id="Capa_1" xmlns="http://www.w3.org/2000/svg" xmlns:xlink="http://www.w3.org/1999/xlink" x="0px" y="0px"
	 viewBox="0 0 1080 1080" style="enable-background:new 0 0 1080 1080;" xml:space="preserve">
<style type="text/css">
	.st0{fill:#EEC575;}
	.st1{fill:#EC9B5C;}
	.st2{fill:#7EC3B0;}
	.st3{fill:#C0D49F;}
	.st4{fill:#C5E4D5;}
	.st5{fill:#9E9ABF;}
	.st6{clip-path:url(#SVGID_2_);}
	.st7{fill:#8CB3A1;}
	.st8{clip-path:url(#SVGID_4_);}
	.st9{fill:none;stroke:#000000;stroke-width:3;stroke-linecap:round;stroke-linejoin:round;stroke-miterlimit:10;}
	.st10{fill:#FFFFFF;}
	.st11{fill:#777691;}
	.st12{fill:#67A390;}
	.st13{clip-path:url(#SVGID_6_);}
	.st14{clip-path:url(#SVGID_8_);}
	.st15{stroke:#000000;stroke-miterlimit:10;}
	.st16{clip-path:url(#SVGID_10_);}
	.st17{clip-path:url(#SVGID_12_);}
	.st18{clip-path:url(#SVGID_14_);}
	.st19{clip-path:url(#SVGID_16_);}
	.st20{fill-rule:evenodd;clip-rule:evenodd;fill:#EC9B5C;}
	.st21{fill-rule:evenodd;clip-rule:evenodd;fill:#7EC3B0;}
	.st22{fill-rule:evenodd;clip-rule:evenodd;fill:#EEC575;}
	.st23{fill-rule:evenodd;clip-rule:evenodd;fill:#9E9ABF;}
	.st24{fill-rule:evenodd;clip-rule:evenodd;}
	.st25{fill-rule:evenodd;clip-rule:evenodd;fill:#FFFFFF;}
</style>
<g>
	<g>
		<g>
			<g>
				<g>
					<path class="st5" d="M541.8,513.6c0.5-2-40.5-45.3-49.2-46c8.8-64.6-14.6-92.6-26.1-50.7c-15.6-25.4-37.4-29.3-31.2,12.1
						c-27.5-20.2-38.9-11.6-28,16.7l-4.4-7.3c-43.9-5.7-81.9,9.1-114.8,84.1c-5.4,12.4-14.7,22.9-26.7,29.2
						c-9.9,5.2-22.8,8.9-40.1,10c-3,0.2-4.2,4-1.8,5.8c22.5,17.2,79,12.7,98.4-7c-1.3,8.4-1.7,17.5-0.2,25.6c1,5.4,4.8,10,10,12
						c7.3,2.7,15.3,2.8,23.1,0.5c1.6-0.5,3.1-1.3,4.3-2.4l0.6,0.8c0,0,10.7,5,16.5,4.1c5.9-0.9,6.4-7,6.4-7v-17l-0.6-0.8
						c11.3,1.2,21.9,1.1,31.8-1l0.2,23c0.4,3.4,2.1,6.2,5.5,6.1c5.7,0.8,14.9,1.3,21,0.3c3.1-0.1,5.8-2.4,6.2-5.5l0.1-1l2.8,2.3
						c19.7,2,24.6-4.1,25.3-7.2c0.7-3.1-1.9-26.3-1.9-26.3l-1-0.5l10.1-2.9l-1.5-2.4c11.1,9.1,30.3,21.3,53.3,20.8
						c29.1-0.3,39.7-22.6,42.5-36.7c0.7-3.5,0-7.2-1.9-10.3C562.9,522.5,557.1,516.6,541.8,513.6z"/>
				</g>
			</g>
			<g>
				<g>
					<path class="st11" d="M428.1,606.8c-4.4,0-9-0.3-12.6-0.8c0,0,0,0-0.1,0c-3.7,0-6.3-2.8-6.9-7.5c0-0.1,0-0.1,0-0.2l-0.2-21
						c-12.9,2.4-27.8,1.8-45.7-1.8l-1.7,13.1c-0.7,5.5-4.5,10.1-9.7,11.6c-8.4,2.4-16.8,2.2-24.3-0.7c-5.5-2.1-9.7-7.1-10.8-13.1
						c-1.2-6.2-1.3-13.6-0.4-21.7c-22.7,18-75.4,20.8-97.2,4.2c-1.6-1.2-2.3-3.3-1.7-5.3c0.6-2,2.3-3.3,4.4-3.5
						c16-1,28.9-4.2,39.4-9.8c11.4-6,20.6-16.1,26-28.4c29.2-66.4,64-91.9,116.5-85.1c0.9,0.1,1.5,0.9,1.4,1.8s-0.9,1.5-1.8,1.4
						c-35.9-4.6-77.4,1.6-113.1,83.2c-5.7,13-15.5,23.6-27.5,30c-11,5.8-24.3,9.1-40.7,10.2c-1,0.1-1.4,0.9-1.5,1.2
						c-0.1,0.3-0.3,1.1,0.6,1.7c21.5,16.4,77.2,12.4,96.3-6.9c0.5-0.5,1.3-0.6,1.9-0.3c0.6,0.3,1,1,0.9,1.7
						c-1.4,9.4-1.5,18.1-0.2,25c0.9,4.9,4.3,9,8.7,10.7c6.9,2.6,14.6,2.8,22.3,0.6c3.9-1.2,6.8-4.6,7.4-8.9l1.9-14.8
						c0.1-0.5,0.3-0.9,0.7-1.1c0.4-0.3,0.8-0.4,1.3-0.3c19.1,4,34.8,4.6,48,1.8c0.5-0.1,1,0,1.4,0.3c0.4,0.3,0.6,0.8,0.6,1.3
						l0.2,22.9c0.3,2.2,1.2,4.7,3.8,4.6c0.1,0,0.2,0,0.3,0c6.1,0.8,14.8,1.2,20.5,0.3c0.1,0,0.2,0,0.2,0c2.3-0.1,4.3-1.8,4.6-4.1
						l2.4-20.6c0.5-4,3.3-7.3,7.2-8.4l27-7.8c0.9-0.3,1.8,0.2,2,1.1c0.2,0.9-0.2,1.8-1.1,2l-27,7.8c-2.6,0.8-4.5,3-4.8,5.7
						l-2.4,20.7c-0.6,3.9-3.8,6.8-7.7,7C434.3,606.6,431.3,606.8,428.1,606.8z"/>
				</g>
				<g>
					<path class="st11" d="M453.1,602.4c-2.2,0-4.8-0.1-7.6-0.4c-0.9-0.1-1.5-0.9-1.5-1.8c0.1-0.9,0.9-1.5,1.8-1.5
						c21,2.2,23.4-5.1,23.6-5.9c0.5-1.9-0.9-16.2-1.9-25.8c-0.1-0.9,0.5-1.7,1.4-1.8c0.9-0.1,1.7,0.5,1.8,1.4
						c0.4,3.9,2.6,23.7,1.9,26.9C472.1,595.9,469.1,602.4,453.1,602.4z"/>
				</g>
				<g>
					<path class="st11" d="M370.8,602.7c-6.3,0-15.3-4.2-15.7-4.3c-0.8-0.4-1.2-1.3-0.8-2.2c0.4-0.8,1.3-1.2,2.2-0.8
						c2.8,1.3,11.2,4.6,15.6,4c4.3-0.6,5-4.9,5.1-5.5V577c0-0.9,0.7-1.6,1.6-1.6c0.9,0,1.6,0.7,1.6,1.6v17c0,0.1,0,0.1,0,0.2
						c-0.2,2.6-2.2,7.6-7.8,8.5C372,602.7,371.4,602.7,370.8,602.7z"/>
				</g>
				<g>
					<path class="st11" d="M528.8,583.5c-36.3,0-62.3-29.7-63.4-31c-0.6-0.7-0.5-1.7,0.2-2.3c0.7-0.6,1.7-0.5,2.3,0.2
						c0.3,0.3,26.9,30.6,62.3,29.9c29.6-0.3,38.3-23.8,40.6-33.8c0.9-4,0.1-8.3-2.2-11.8c-7.1-11.1-12.7-16.5-27-19.3
						c-0.4-0.1-0.8-0.3-1-0.7c-0.1-0.2-0.2-0.4-0.2-0.6c-2.5-5.2-40.8-44.1-47.7-44.7c-0.4,0-0.9-0.3-1.1-0.6
						c-0.3-0.3-0.4-0.8-0.3-1.2c5.7-41.7-2.5-67-10.3-68.6c-4.4-0.9-9.3,6.2-12.7,18.6c-0.2,0.6-0.7,1.1-1.3,1.2
						c-0.6,0.1-1.3-0.2-1.6-0.8c-7.8-12.7-17.4-20.1-23.3-17.9c-5.6,2.1-7.4,12.6-4.9,28.9c0.1,0.7-0.2,1.3-0.8,1.6
						c-0.6,0.3-1.3,0.3-1.8-0.1c-12.7-9.4-22.8-12.9-27-9.5c-4.5,3.7-2.9,15.4,4.5,31.3c0.2,0.5,0.2,1.2-0.2,1.6
						c-0.4,0.5-0.9,0.7-1.5,0.7c-11.5-1.5-19.1,0.1-21,4.4c-2.3,5.3,4.4,15,17.9,25.9c0.5,0.4,0.7,1,0.6,1.5c-0.1,0.6-0.5,1.1-1,1.3
						c-11.7,4.3-18.6,10.3-17.8,15.5c0.8,5.6,9.7,9.9,22.9,11c0.6,0,1.1,0.4,1.3,0.9c0.2,0.5,0.2,1.2-0.2,1.6
						c-7.6,10.4-9.6,19.3-5.5,24c4.1,4.7,16.4,6,37.4-5.7c0.8-0.4,1.8-0.2,2.2,0.6c0.4,0.8,0.2,1.8-0.6,2.2
						c-19,10.5-34.8,12.4-41.4,5c-4.9-5.6-3.5-14.9,3.7-25.8c-13.5-1.6-22.1-6.6-23-13.5c-0.9-6.6,5.4-13.1,17.3-18
						c-13.6-11.5-19.5-21.3-16.7-27.9c2.3-5.4,9.9-7.7,21.5-6.6c-7.2-16.5-8-28-2.4-32.6c5.3-4.3,14.9-1.8,27.9,7.2
						c-1.9-16.1,0.8-26.2,7.5-28.7c7-2.6,16.7,3.8,25.2,16.3c5.3-16.7,11.9-18.2,15.4-17.5c10.7,2.2,18.5,29.2,13.1,70.8
						c10.8,4.3,42.5,37.5,47.8,44.7c0.3,0.4,0.5,0.8,0.7,1.1c14.8,3.1,21,9.2,28.3,20.6c2.8,4.3,3.7,9.5,2.6,14.3
						c-2,8.4-10.9,36-43.7,36.4C529.7,583.5,529.2,583.5,528.8,583.5z"/>
				</g>
				<g>
					<path class="st11" d="M479.2,442.9c-0.9,0-1.6-0.7-1.6-1.6v-13.7c0-0.9,0.7-1.6,1.6-1.6c0.9,0,1.6,0.7,1.6,1.6v13.7
						C480.9,442.1,480.1,442.9,479.2,442.9z"/>
				</g>
				<g>
					<path class="st11" d="M456.9,440.6c-0.6,0-1.2-0.3-1.5-0.9l-4.6-10c-0.4-0.8,0-1.8,0.8-2.2c0.8-0.4,1.8,0,2.2,0.8l4.6,10
						c0.4,0.8,0,1.8-0.8,2.2C457.4,440.5,457.2,440.6,456.9,440.6z"/>
				</g>
				<g>
					<path class="st11" d="M434.7,452c-0.4,0-0.8-0.2-1.2-0.5l-7.8-7.8c-0.6-0.6-0.6-1.7,0-2.3c0.6-0.6,1.7-0.6,2.3,0l7.8,7.8
						c0.6,0.6,0.6,1.7,0,2.3C435.6,451.8,435.1,452,434.7,452z"/>
				</g>
				<g>
					<path class="st11" d="M426.8,472.7c0,0-0.1,0-0.1,0l-11-0.9c-0.9-0.1-1.6-0.9-1.5-1.8c0.1-0.9,0.9-1.6,1.8-1.5l11,0.9
						c0.9,0.1,1.6,0.9,1.5,1.8C428.3,472.1,427.6,472.7,426.8,472.7z"/>
				</g>
				<g>
					<path class="st11" d="M423,502.9c-0.6,0-1.2-0.4-1.5-1c-0.4-0.8,0-1.8,0.9-2.1l10.1-4.3c0.8-0.4,1.8,0,2.1,0.9
						c0.4,0.8,0,1.8-0.9,2.1l-10.1,4.3C423.5,502.9,423.3,502.9,423,502.9z"/>
				</g>
				<g>
					<path class="st11" d="M518.4,550.7c-4.9,0-9.6-2.1-14.1-6.4c-0.7-0.6-0.7-1.6-0.1-2.3c0.6-0.7,1.6-0.7,2.3-0.1
						c6.4,6.1,12.9,7.1,19.9,3.3c0.8-0.4,1.8-0.1,2.2,0.6c0.4,0.8,0.1,1.8-0.6,2.2C524.8,549.8,521.5,550.7,518.4,550.7z"/>
				</g>
				<g>
					<path class="st11" d="M433.8,523.3c-0.6,0-1.1-0.3-1.4-0.9c-0.4-0.8-0.1-1.8,0.7-2.2l9.7-5.3c0.8-0.4,1.8-0.1,2.2,0.7
						c0.4,0.8,0.1,1.8-0.7,2.2l-9.7,5.3C434.3,523.2,434.1,523.3,433.8,523.3z"/>
				</g>
				<g>
					<path class="st0" d="M485.9,495.8c-6.6-5-20.9-22.9-27.4-31.5c-1-1.4-3.3-0.6-3.2,1.1c0.3,13,8.6,34.1,16.5,42.1
						c0.4,0.4,1,0.6,1.5,0.5c5.9-1.1,11.5-6.7,13.1-10C486.8,497.2,486.6,496.3,485.9,495.8z"/>
				</g>
				<g>
					<path class="st0" d="M518.4,489.5c3.1-5.5,2.9-26.2,0.4-36.7c-0.4-1.8-2.9-1.9-3.4-0.2c-3.2,9.7-10.9,27.1-14.3,31.5
						C498.5,487.5,516.3,493.5,518.4,489.5z"/>
				</g>
				<g>
					<path class="st0" d="M560.9,533.5l4.7-30.3c0.2-1.6-1.7-2.4-2.7-1.2l-19.5,24.1c-1.5,1.9-1.3,4.8,0.5,6.4
						c3.3,3,7.2,5.1,10.9,5.7C557.6,538.7,560.5,536.5,560.9,533.5z"/>
				</g>
				<g>
					<path class="st11" d="M486.1,495.1c-0.3,0.1-0.5,0.2-0.7,0.5c-0.2,0.2-0.2,0.5-0.2,0.8c0.3,1.9-1.1,3.8-2.3,5.1
						c-3.4,3.6-9.3,6.2-11.8,5.9c-0.3,0-0.6,0-0.8,0.2c-0.2,0.2-0.4,0.4-0.4,0.7c0,0.3,0,0.6,0.2,0.8c0.2,0.2,0.4,0.4,0.7,0.4
						c0.2,0,0.4,0,0.7,0c3.5,0,9.6-3.1,12.9-6.6c2.3-2.4,3.2-4.8,2.8-7C487.2,495.4,486.7,495,486.1,495.1z"/>
					<path class="st11" d="M562.3,534.6c-0.1-0.3-0.3-0.5-0.6-0.6c-0.3-0.1-0.6-0.1-0.8,0c-0.3,0.1-0.5,0.3-0.6,0.6
						c-1.6,3.3-5.5,3.5-8.6,2.6c-4.6-1.4-9-5.5-8.3-10.1c0-0.3,0-0.6-0.2-0.8c-0.2-0.2-0.4-0.4-0.7-0.4c-0.3,0-0.6,0-0.8,0.2
						c-0.2,0.2-0.4,0.4-0.4,0.7c-0.9,5.9,4.4,10.8,9.9,12.5c1.3,0.4,2.6,0.6,3.8,0.6c3.4,0,6-1.6,7.3-4.3
						C562.4,535.1,562.4,534.8,562.3,534.6z"/>
					<path class="st11" d="M518.4,488.5c-1.7,1.5-4.9,1.8-8.7,0.8c-4.2-1.1-7.9-3.5-8.6-5.7c-0.1-0.3-0.3-0.5-0.5-0.6
						c-0.3-0.1-0.6-0.2-0.8-0.1c-0.3,0.1-0.5,0.3-0.6,0.5c-0.1,0.3-0.2,0.6-0.1,0.8c1.1,3.4,6,6,10.1,7.1c1.6,0.4,3.2,0.6,4.6,0.6
						c2.5,0,4.6-0.7,6.1-2c0.4-0.4,0.5-1.1,0.1-1.5C519.6,488.1,518.9,488.1,518.4,488.5z"/>
				</g>
				<g>
					<circle cx="501.6" cy="525.2" r="5.4"/>
				</g>
				<g>
					<circle cx="525.6" cy="516.4" r="5.4"/>
				</g>
			</g>
			<g>
				<g>
					<g>
						<g>
							<circle class="st3" cx="331.7" cy="488.1" r="12.5"/>
						</g>
						<g>
							<circle class="st3" cx="357.9" cy="470" r="10.8"/>
						</g>
						<g>
							<circle class="st3" cx="315.7" cy="513.8" r="4.9"/>
						</g>
						<g>
							<circle class="st3" cx="343.2" cy="518.5" r="9.8"/>
						</g>
						<g>
							<circle class="st3" cx="363" cy="498.1" r="7.1"/>
						</g>
					</g>
				</g>
			</g>
		</g>
		<g>
			<g>
				<g>
					<path class="st2" d="M754,581c-0.4,3.9-1,7.3-1.8,10.8c-1,4.2-4,7.6-8.1,8.9c-12.7,4.2-39.5,7.8-48.7-1l-1.1,0.4
						c-9.6,3.1-33.8,7.2-33.7-7c2.6-7.6,10-13.7,22.8-16.8c-0.7-6.8-0.7-11.7,0.8-17.4l-0.1-0.6c-15.9-13.6-18.9-32.9-17.2-52.4
						l-2.6,0.1l-10-12.3l-11.1,8.2c-3.9-36.9,31.6-36.9,31.6-36.9l0.4-0.1c0.8-3.2,1.6-6.2,2.4-9.2l3.3-22.3l-6.4,1.7
						c-22.7,6.5-54.9,5.8-55.2-12.7l0-2c-5.1-1.1-9-3.1-10.8-6.2c-2.9-5.2-8.6-37.8,7.6-50.3c9.7-7.5,34.1-13.7,51.7-15.6
						c24.9-2.7,48.8,11.4,58,34.7c2.4,6.2,4.1,15.8,5.4,24.3c6.9,45.1,12.5,125.2,66.3,129.9c30.5,2.1,44.6-38.6,54.7-53.3
						c1.1-1.5,3.4-0.9,3.5,1C857,508.7,853,591.2,754,581z"/>
				</g>
			</g>
			<g>
				<path class="st0" d="M732.7,418.5c-15.8,1.4-27.5-0.2-28.3-4.4c-0.8-4.3,9.9-10,25.4-14.3c0.4,2.6,0.9,5.2,1.2,7.7
					C731.6,411,732.2,414.7,732.7,418.5z"/>
			</g>
			<g>
				<path class="st0" d="M737.5,450.4c-11.9,1-20.3-0.2-21.1-3.7c-0.9-3.6,6.6-8.8,18.4-13.4C735.6,438.9,736.5,444.6,737.5,450.4z"
					/>
			</g>
			<g>
				<path class="st0" d="M744.2,479.9c-11.5,1.7-19.7,1-20.7-2.4c-1.1-3.5,5.6-8.9,16.6-14.2C741.3,468.9,742.6,474.5,744.2,479.9z"
					/>
			</g>
			<g>
				<path class="st0" d="M748.6,492.8c2.1,5.6,4.6,10.8,7.4,15.7c-12.3,2.8-21.4,2.8-22.7-0.7C731.9,504.4,738.2,498.7,748.6,492.8z
					"/>
			</g>
			<g>
				<path class="st0" d="M776.4,530.7c-11.2,8.3-20.5,12.3-23.2,9.4c-2.6-2.8,1.5-11.2,9.8-21.3
					C766.9,523.5,771.3,527.6,776.4,530.7z"/>
			</g>
			<g>
				<path class="st0" d="M802.1,537.4c-3.3,11-7.4,18-10.9,17.6c-3.5-0.5-5.6-8.4-5.8-20.1c3.7,1.3,7.7,2.1,12,2.5
					C799,537.5,800.6,537.5,802.1,537.4z"/>
			</g>
			<g>
				<path class="st0" d="M828.7,543.3c-2.6,2-8.9-1.5-16.4-8.5c4.9-2.1,9.2-5.4,13-9.3C829.8,534.5,831.3,541.4,828.7,543.3z"/>
			</g>
			<g>
				<path class="st0" d="M726.2,384.4c-17.7,4.1-31.7,4.2-33.1-0.3c-1.2-4.1,8.4-10.8,23-16.7c4,4.6,7.3,9.9,9.7,15.9
					C725.9,383.6,726,384,726.2,384.4z"/>
			</g>
			<g>
				<g>
					<path class="st12" d="M648.5,440.8c-8.3,0-16-1.3-21.6-4.1c-6-3.1-9.2-7.9-9.3-13.9c0-0.9,0.7-1.6,1.6-1.7c0,0,0,0,0,0
						c0.9,0,1.6,0.7,1.6,1.6c0.1,4.8,2.6,8.5,7.6,11.1c14.9,7.7,47.4,2.7,60.9-6.5c0.7-0.5,1.8-0.3,2.3,0.4c0.5,0.7,0.3,1.8-0.4,2.3
						C681.6,436.4,664,440.8,648.5,440.8z"/>
				</g>
				<g>
					<path class="st12" d="M711.4,574c-0.1,0-0.3,0-0.4-0.1c-61.5-17.6-47-72.5-37.5-108.9c3.1-11.9,5.8-22.1,5.3-28.5
						c-0.1-0.9,0.6-1.7,1.5-1.8c0.9-0.1,1.7,0.6,1.8,1.5c0.5,7-2.2,17.5-5.4,29.6c-9.8,37.2-23.2,88.2,35.2,104.9
						c0.9,0.2,1.4,1.1,1.1,2C712.7,573.5,712.1,574,711.4,574z"/>
				</g>
				<g>
					<path class="st12" d="M770.1,583.5c-5.2,0-10.7-0.3-16.3-0.9c-0.9-0.1-1.5-0.9-1.5-1.8c0.1-0.9,0.9-1.5,1.8-1.5
						c32.7,3.4,58-3.2,75.1-19.5c25.5-24.4,25.4-63.4,24.8-74.7c0-0.1,0-0.2-0.2-0.3c-0.2-0.1-0.3,0.1-0.3,0.1
						c-2,2.9-4.2,6.9-6.7,11.6c-9.6,17.6-24.1,44.2-49.4,42.5c-22.2-1.9-38.4-16.1-49.4-43.4c-9.3-22.9-13.2-51.2-16.4-74
						c-0.7-4.9-1.3-9.6-2-13.9c-1.4-9-3-18.1-5.3-23.9c-8.8-22.4-32-36.3-56.3-33.6c-17.7,1.9-41.6,8.2-50.9,15.3
						c-15.2,11.8-9.8,43.6-7.2,48.2c1.2,2.2,4,3.9,8.2,5c16.4,4.4,49.3-1.3,53.7-3.1c0-0.1,0.1-0.1,0.2-0.2c0.6-0.6,1.7-0.6,2.3,0
						c0.5,0.4,0.6,1.2,0.4,1.8c-0.3,0.8-0.6,1.6-9.8,3.4c-3.5,0.7-10.5,1.9-19.2,2.6c-15,1.2-33.8,0.8-38.6-7.9
						c-3-5.5-9.3-39.1,8-52.4c10.1-7.8,34.6-14,52.5-16c25.8-2.8,50.3,11.9,59.7,35.7c2.5,6.4,4.1,16.1,5.5,24.6c0.7,4.4,1.3,9,2,14
						c6.5,46.6,15.5,110.5,62.8,114.6c23.2,1.6,36.6-22.9,46.3-40.8c2.6-4.7,4.8-8.8,6.9-11.9c0.9-1.3,2.4-1.8,3.9-1.4
						c1.5,0.4,2.5,1.7,2.6,3.2c0.7,11.7,0.8,51.9-25.8,77.2C816.6,576.4,796.1,583.5,770.1,583.5z"/>
				</g>
				<g>
					<path class="st12" d="M713.7,503.6c-0.4,0-0.8-0.2-1.1-0.4l-9.3-8.6l-9.1,6.8c-0.5,0.4-1.1,0.4-1.6,0.2c-0.5-0.2-0.9-0.7-1-1.3
						c-1.7-16.4,0.8-27.4,7.7-32.6c5.2-3.9,11.4-3.5,15.1-2.7l-4-11.5c-0.3-0.8,0.1-1.8,1-2.1c0.8-0.3,1.8,0.1,2.1,1l5.1,14.4
						c0.2,0.6,0.1,1.3-0.4,1.7c-0.5,0.4-1.1,0.6-1.7,0.3c-0.1,0-8.9-3.4-15.2,1.4c-5.4,4.1-7.7,13.4-6.7,26.8l7.8-5.9
						c0.6-0.5,1.5-0.4,2.1,0.1l9,8.3l6.5-8.7c0.5-0.7,1.6-0.9,2.3-0.3c0.7,0.5,0.9,1.6,0.3,2.3l-7.6,10.1c-0.3,0.4-0.7,0.6-1.2,0.6
						C713.8,503.6,713.8,503.6,713.7,503.6z"/>
				</g>
				<g>
					<path class="st12" d="M664.2,507.8c-0.5,0-0.9-0.2-1.3-0.6l-9-11.1l-9.9,7.3c-0.5,0.3-1.1,0.4-1.6,0.2c-0.5-0.2-0.9-0.7-1-1.3
						c-1.2-11.6,1.2-20.9,7.3-27.7c9.8-10.9,25.3-11,25.9-11c0.9,0,1.6,0.7,1.6,1.6c0,0.9-0.7,1.6-1.6,1.6c-0.1,0-14.7,0.1-23.5,9.9
						c-4.9,5.5-7.1,12.9-6.7,22.3l8.8-6.5c0.7-0.5,1.7-0.4,2.2,0.3l9.9,12.3c0.6,0.7,0.5,1.7-0.2,2.3
						C664.9,507.7,664.6,507.8,664.2,507.8z"/>
				</g>
				<g>
					<path class="st12" d="M675.7,604.9c-4.9,0-9.5-0.8-12.7-3.1c-2.8-2-4.1-4.9-4.1-8.5c0-0.2,0-0.4,0.1-0.5
						c2.8-8.3,10.6-14.3,22.6-17.5c-0.5-5.8-0.5-10.7,1-16.5c0.2-0.9,1.1-1.4,2-1.2c0.9,0.2,1.4,1.1,1.2,2
						c-1.3,5.1-1.5,9.7-0.7,16.8c0.1,0.8-0.4,1.6-1.2,1.8c-11.5,2.8-18.9,8.1-21.6,15.5c0,2.5,1,4.3,2.8,5.6
						c6.2,4.5,21,2.1,28.8-0.4c0.9-0.3,1.8,0.2,2.1,1c0.3,0.9-0.2,1.8-1,2.1C691.1,603,683.2,604.9,675.7,604.9z"/>
				</g>
				<g>
					<path class="st12" d="M715.5,606.8c-9.3,0-18.1-1.7-22.4-6.9c-2.4-2.9-3.1-5.7-2.1-8.5c2.4-7.2,15.5-11.3,20.5-12.6
						c-4.9-16.9-4.4-30.8,1.4-41.3c6.5-11.8,17.3-14.8,17.8-14.9c0.9-0.2,1.8,0.3,2,1.2c0.2,0.9-0.3,1.8-1.1,2
						c-0.1,0-10,2.9-15.8,13.4c-5.5,10-5.7,23.6-0.6,40.4c0.1,0.4,0.1,0.9-0.1,1.3c-0.2,0.4-0.6,0.7-1,0.8
						c-4.9,1.1-17.9,5.2-19.8,10.9c-0.6,1.7-0.1,3.5,1.6,5.4c6.9,8.2,31.4,6.4,46.4,1.8c4.4-1.3,7.7-4.9,8.7-9.5
						c1.7-7.8,2.6-16.1,1.6-31.4c-0.1-0.9,0.6-1.7,1.5-1.7c0.9-0.1,1.7,0.6,1.7,1.5c1,15.7,0,24.2-1.7,32.3
						c-1.2,5.7-5.4,10.2-11,11.9C736.6,604.7,725.7,606.8,715.5,606.8z"/>
				</g>
				<g>
					<circle cx="649.3" cy="395.1" r="5.4"/>
				</g>
			</g>
		</g>
	</g>
	<g>
		<g>
			<g>
				<path class="st0" d="M176.9,662.5c-1.5,1.6-3.3,3-5.4,4.2c-2.1,1.1-4.1,1.8-6.2,2.1c-2.1,0.3-4,0-5.8-0.7
					c-1.8-0.7-3.4-2.1-4.5-4.2c-0.8-1.4-1.6-2.7-2.4-4c-0.9-1.3-1.8-2.6-2.8-3.8c-1.1-1.3-2.5-2.4-4.2-3.4c-2.9-1.9-5.9-2-8.9-0.4
					c-1.5,0.7-2.6,1.6-3.3,2.7c-0.7,1.1-1.1,2.3-1.1,3.5c0,1.2,0.3,2.4,0.8,3.6c0.5,1.2,1.4,2.1,2.6,2.9c2.2,1.4,4.4,2.7,6.6,4
					c2.2,1.3,4.5,2.6,6.7,3.8c2.7,1.6,5.5,3,8.4,4.4c2.9,1.4,5.6,2.9,8.1,4.4c4.9,3,8.4,6.5,10.6,10.5c2.2,3.9,3.2,8.3,3,13.2
					c-0.2,3.6-1.1,6.8-2.5,9.9c-1.5,3-3.7,5.8-6.7,8.3c-5.2,4.2-10.9,7-17.1,8.4c-6.2,1.3-12.9,1.4-20.1,0.2
					c-5.6-1-10.8-2.6-15.4-4.9c-4.6-2.3-8.9-5.1-12.8-8.4c-2.3-2-4.1-4.1-5.5-6.4c-1.4-2.3-2.5-4.8-3.3-7.5
					c-0.7-2.6-0.1-5.2,1.6-7.8c1.4-2.1,3.1-3.9,5.1-5.3c2-1.5,4.5-2.5,7.6-3c2.5-0.4,4.9-0.3,7.1,0.5c2.3,0.7,4,2,5.2,3.7
					c0.9,1.1,1.6,2.3,2.3,3.4c0.7,1.1,1.3,2.3,1.9,3.5c1.2,2.1,3,3.8,5.3,5.1c2.3,1.3,4.7,2.2,7,2.6c2.3,0.4,4.4,0.2,6.3-0.5
					c1.9-0.7,3-2.2,3.3-4.4c0.2-1.6-0.2-3.2-1.2-5c-1-1.8-2.6-3.3-4.6-4.5c-2.5-1.4-5-2.8-7.5-4.2c-2.5-1.4-5-2.7-7.6-3.9
					c-8.2-3.8-15.4-8.7-21.6-14.7c-3.1-3.6-5-7.5-5.4-11.5c-0.5-4,0.1-7.9,1.7-11.6c1.6-3.7,4.3-7,8-9.9c3.7-2.9,8.2-4.9,13.5-6.2
					c6-1.4,11.7-2.1,17.3-2.2c5.6-0.1,10.6,0.6,15.2,2.1c3.4,1.1,6.9,2.8,10.6,4.9c3.7,2.2,6.8,4.7,9.3,7.5c2.5,2.8,4,5.9,4.5,9.2
					C181.3,655.9,180,659.2,176.9,662.5z"/>
			</g>
		</g>
		<g>
			<g>
				<path class="st1" d="M224.6,720.6c0,2.2-0.2,4.3-0.5,6.4c-0.5,3-2.5,4.7-6,5.1c-1,0.1-2.2,0.2-3.7,0.3c-1.5,0.1-3,0.2-4.5,0.3
					c-1.5,0.1-3,0.1-4.4,0.1c-1.4,0-2.6,0-3.6-0.1c-3.8-0.2-6.6-1.1-8.3-2.7c-1.7-1.6-2.6-3.9-2.6-7v-9.7c0.1-5.7,0.2-11.7,0.2-17.8
					c0-6.2,0.1-12.4,0.2-18.7c0.1-6.3,0.2-12.5,0.4-18.7c0.2-6.2,0.4-12.1,0.7-17.8c0-0.8,0-1.6,0-2.4c0-0.8,0.1-1.7,0.2-2.5
					c0.1-1.6,0.7-2.8,1.7-3.7c1-0.9,2.5-1.4,4.5-1.4c1.3,0,2.8,0,4.6-0.1c1.8,0,3.6,0,5.4,0c1.8,0,3.6,0.1,5.4,0.1
					c1.7,0,3.3,0.1,4.5,0.2c2.2,0.2,3.7,0.7,4.5,1.5c0.8,0.8,1.3,2.1,1.4,3.8c0.2,1.4,0.3,2.8,0.2,4.1c-0.1,1.3-0.2,2.8-0.2,4.2
					c0,11.4,0,21.3,0,29.5c0,8.2,0,15.3,0,21.2c0,5.9,0,10.9-0.1,14.9C224.7,713.7,224.6,717.3,224.6,720.6z"/>
			</g>
		</g>
		<g>
			<path class="st2" d="M318.2,689.8c-1.5,2.2-3,4.3-4.5,6.4c-1.5,2.1-3,4.2-4.5,6.4c-0.2,0.3-0.4,0.5-0.7,0.7
				c-0.2,0.2-0.4,0.5-0.5,0.7c-2.4,4.2-6.3,6.1-11.9,5.8c-1.7-0.2-3.4-0.2-5.1-0.1c-1.7,0.1-3.4,0.1-5.1,0.1
				c-1.8-0.1-3.4-0.5-4.5-1.2c-1.2-0.7-2.2-1.7-3.1-2.9c-1.7-2.5-3.2-5-4.3-7.5c-1.1-2.5-2.5-4.8-4.1-7.1c-0.9-1.2-1.6-1.9-2.2-1.9
				c-0.6-0.1-0.9,1-0.9,3.4v28.9v1.3c0,3.8-0.8,6.4-2.5,7.9c-1.7,1.4-4.8,2.2-9.5,2.4c-2.2,0.1-4.3,0.1-6.3-0.1
				c-2.1-0.1-4.1-0.3-6.2-0.5c-2.5-0.3-4.4-1.2-5.8-2.6c-1.4-1.4-2.1-3.2-2.1-5.5c0-1.3,0.1-2.9,0.2-4.7c0.1-1.9,0.2-3.8,0.3-5.7
				c0.1-1.9,0.2-3.9,0.2-5.7c0.1-1.9,0.1-3.5,0.1-4.9c0-11.2,0-22.1-0.1-32.7c-0.1-10.6-0.1-21.6-0.1-32.8v-0.9
				c0.1-2.6,0.7-4.4,1.9-5.4c1.1-1,3.3-1.6,6.4-1.8c2.3-0.1,4.6-0.1,6.9,0.1c2.3,0.1,4.7,0.3,7.1,0.5c1.7,0.2,3.2,0.6,4.4,1.4
				c1.2,0.7,2.2,1.7,3.1,2.9c3.9,5.2,7.7,10.3,11.5,15.3c3.7,5,7.4,10.1,11.1,15.3c0.2,0.3,0.5,0.7,0.8,1c0.3,0.3,0.7,0.6,1,1
				c1.3,1.5,2.4,2.2,3.3,2.2c0.9,0,2-0.7,3.3-2.2c0.4-0.4,0.9-0.9,1.3-1.4c0.4-0.5,0.8-1,1.1-1.5c2.5-4,5-7.8,7.5-11.4
				c2.5-3.6,5-7.4,7.5-11.4c0.9-1.2,1.6-2.4,2.4-3.6c0.7-1.2,1.5-2.4,2.4-3.6c0.9-1.6,2.2-2.6,3.9-3.2c1.7-0.6,3.5-1,5.4-1.2
				c2.1-0.2,4.1-0.3,6.3-0.3c2.1,0,4.3,0,6.4,0.2c5.8,0.4,9.2,3,10.1,7.8c0.2,1,0.4,1.9,0.5,3c0.1,1,0.1,2,0,3
				c-0.1,7.8-0.2,15.4-0.3,22.7c-0.1,7.4-0.2,15-0.2,22.9c0,2.7,0,5.6,0.1,8.7c0.1,3.1,0.1,6.3,0.2,9.4c0.1,3.2,0.1,6.3,0.2,9.4
				c0.1,3.1,0.1,6,0.1,8.7c0.1,2.5-0.3,4.2-1.3,5.1c-1,0.9-3.1,1.5-6.3,1.8c-2.2,0.2-4.3,0.3-6.3,0.4c-2.1,0.1-4.2,0.1-6.3,0.1
				c-3.5-0.1-5.8-0.7-7.1-1.9c-1.3-1.2-2.1-3.1-2.3-5.9c-0.1-2.4-0.2-5.1-0.3-8.1c-0.1-2.9-0.2-5.9-0.3-8.9c-0.1-3-0.2-5.9-0.4-8.8
				c-0.2-2.9-0.3-5.6-0.4-8.1c0-0.2,0-0.4-0.1-0.7c-0.1-0.3-0.1-0.5-0.1-0.7c-0.2,0-0.4,0-0.4-0.1
				C318.6,689.8,318.4,689.8,318.2,689.8z"/>
		</g>
		<g>
			<g>
				<path class="st3" d="M457.3,677.7c0,7.4-1,14-2.8,20c-1.9,6-4.9,11.6-9,16.9c-3.7,4.9-8.3,9-13.8,12.2c-4.2,2.3-8.6,4-13.1,5.1
					c-4.5,1-9,1.4-13.5,1.2c-4.5-0.3-8.9-1.2-13.2-2.8c-4.3-1.6-8.3-3.8-12.1-6.7c-4.7-3.6-8.4-7.6-11.3-12c-2.9-4.4-5-9.1-6.4-14.1
					c-2.2-7.6-2.8-15.1-2-22.5c0.9-7.4,3.4-14.6,7.5-21.6c2.2-3.3,4.6-6.4,7.4-9.2c2.8-2.9,5.9-5.4,9.5-7.7
					c4.2-2.5,8.6-4.4,13.2-5.5c4.6-1.2,9.2-1.6,13.7-1.4c4.5,0.3,9,1.2,13.4,2.9c4.4,1.6,8.5,3.9,12.4,6.9
					c4.8,3.6,8.6,7.7,11.4,12.1c2.8,4.4,4.9,9.2,6.3,14.3c0.7,2.3,1.1,4.6,1.5,6.8C456.8,674.6,457.1,676.4,457.3,677.7z
					 M391.2,682.7c-0.2,2.5,0,5.1,0.7,7.7c0.7,2.6,1.7,5.2,3.2,7.6c1.8,3.1,4,5.7,6.5,7.8c2.6,2.1,5.4,3.1,8.5,3.2
					c3.1,0,5.9-0.9,8.4-2.9c1-0.7,1.9-1.4,2.8-2.2c0.9-0.8,1.6-1.6,2.2-2.6c8.1-12.7,8.2-25.3,0.2-38c-0.7-1.2-1.5-2.3-2.7-3.3
					c-1.1-1-2.4-2-3.7-2.9c-2.2-1.4-4.4-2.1-6.8-2.1c-2.4,0-4.8,0.5-7.1,1.8c-1.5,1-2.9,2-4.1,3.2c-1.2,1.2-2.2,2.4-3.1,3.7
					C392.5,669.3,390.8,675.6,391.2,682.7z"/>
			</g>
		</g>
		<g>
			<g>
				<g>
					<path class="st4" d="M546.6,726.1c-0.2,0.1-0.5,0.3-0.7,0.4c-0.2,0.1-0.4,0.3-0.5,0.4c-2.2,1.8-4.7,3.1-7.4,3.9
						c-2.7,0.8-5.6,1.2-8.7,1.4c-1.6,0.1-3.2,0-4.7-0.1c-1.6-0.1-3.2-0.2-4.9-0.3c-3-0.2-6-0.9-9.1-2.1c-3.1-1.2-5.9-2.9-8.6-4.9
						c-2.6-2-4.9-4.4-6.9-7c-1.9-2.7-3.2-5.5-3.7-8.4c-0.6-2.5-0.5-4.8,0.3-7.1c0.7-2.3,1.8-4.5,3.1-6.7c1.3-2.2,3-4.2,5.1-6
						c2.1-1.8,4.3-3.5,6.6-5.2c0.3-0.2,0.6-0.4,0.9-0.6c0.3-0.2,0.6-0.5,0.9-0.7c0.1,0,0.1-0.1,0.1-0.3c-0.7-0.9-1.4-1.9-2.1-2.9
						c-0.7-1-1.4-2-2-3.1c-1.2-1.9-1.8-3.8-2-5.8c-0.1-2,0.2-3.9,0.9-5.7c0.7-1.8,2-3.4,3.6-4.9c1.7-1.5,3.7-2.7,6.2-3.7
						c1.8-0.7,3.7-1.1,5.6-1.2c1.9-0.1,3.8-0.1,5.7,0.2c7.6,0.6,14.7,2.2,21.5,5c1.3,0.5,2.3,1.2,3.2,2.2c0.9,0.9,1.5,2,1.8,3.2
						c0.4,1.2,0.5,2.4,0.3,3.6s-0.6,2.4-1.3,3.5c-0.2,0.3-0.5,0.6-0.8,0.9c-0.3,0.3-0.6,0.6-0.9,0.9c-0.9,0.8-1.6,1.4-2.3,1.8
						c-0.7,0.4-1.3,0.6-2,0.7c-0.7,0.1-1.4,0-2.2-0.3c-0.8-0.3-1.7-0.7-2.8-1.3c-1.3-0.7-2.7-1.4-4.1-2c-1.4-0.7-2.8-1.3-4.2-1.8
						c-0.6-0.3-1.4-0.4-2.2-0.5c-0.8-0.1-1.6-0.1-2.4-0.1c-0.7-0.1-1.2,0.1-1.5,0.5c-0.3,0.4-0.2,0.8,0.3,1.3
						c0.3,0.4,0.7,0.7,1.1,1.1c0.4,0.3,0.8,0.7,1.2,1c0.8,0.5,1.6,1,2.3,1.5c0.7,0.5,1.5,1,2.3,1.6c1.5,1.1,2.4,2.5,2.7,4.2
						c0.3,1.7,0,3.2-0.9,4.5c-0.9,1.5-2.5,2.3-4.7,2.7c-1.1,0.1-2.2,0.3-3.4,0.4c-1.1,0.2-2.3,0.3-3.5,0.5c-2.5,0.5-4.7,1.3-6.4,2.5
						c-1.8,1.2-3.3,2.6-4.6,4.3c-1.5,2-2.1,4.3-1.8,6.7c0.3,2.5,1.4,4.7,3.3,6.6c2,2,4.4,3.3,7.2,3.8c2.8,0.5,5.7,0.5,8.5-0.1
						c2.5-0.6,4.4-1.8,5.6-3.7c1.2-1.9,1.4-3.9,0.6-6h-3.1c-1.5-0.1-2.5-0.3-3-0.7c-0.5-0.4-1-1.1-1.4-2.2c-0.9-2.8-0.5-5.3,1.2-7.2
						c1.7-2,4.3-3.2,7.9-3.5c3.3-0.4,6.6-0.5,9.9-0.5c3.3,0.1,6.6,0.5,9.9,1.4c1.3,0.4,2.3,0.9,3.3,1.6c0.9,0.7,1.6,1.5,2.1,2.4
						c0.5,0.9,0.8,1.9,0.9,2.9c0.1,1-0.1,2-0.6,2.9c-0.9,1.7-2.5,2.8-4.9,3.3c-0.4,0.1-0.8,0.2-1.4,0.2c-0.5,0-1,0.1-1.5,0.2
						c0.6,2.5,1.5,4.9,2.7,7c1.3,2.1,2.9,4.2,4.9,6.1c0.8,0.8,1.6,1.5,2.4,2.3c0.8,0.8,1.6,1.5,2.4,2.2c1.3,1.1,1.5,2.5,0.6,4
						c-0.7,1.1-1.6,2-2.6,2.8c-1,0.8-2.2,1.5-3.5,2.2c-3.5,1.6-6.5,1.2-9.2-1c-0.8-0.8-1.5-1.5-2.2-2.4
						C548.3,727.8,547.5,726.9,546.6,726.1z"/>
				</g>
			</g>
		</g>
		<g>
			<g>
				<path class="st1" d="M661.2,700.3c-2.4,0.2-4.6,0.3-6.7,0.3c-2.1,0-4.1,0.1-6.2,0.3c-4.2,0.3-7.1,0-8.6-0.9
					c-1.5-0.9-2.4-2.8-2.8-5.8c-0.2-3.1-0.2-6.3,0-9.5c0.1-3,2.3-4.7,6.7-5.1c2.7-0.2,5.4-0.3,8-0.4c2.6-0.1,5.2-0.2,7.8-0.4
					c4,0,8,0,12,0c4,0,8.1,0.1,12.2,0.3c4.1,0.1,7,0.8,8.8,2c1.7,1.3,2.7,3.3,2.9,6c1,9.6-1.3,18.9-6.8,27.8
					c-2.4,3.9-5.4,7.2-9.2,9.8c-3.7,2.6-7.8,4.7-12.3,6.1c-4.4,1.4-9.1,2.3-14.1,2.5c-4.9,0.3-9.7,0-14.5-0.9
					c-4.7-0.9-9.2-2.2-13.5-4.1c-4.3-1.9-8-4.2-11.3-7.1c-3.9-3.5-7.2-7.4-10-11.9c-2.8-4.5-4.8-9.1-6.3-14
					c-1.4-4.9-2.1-9.9-2.2-14.9c-0.1-5.1,0.6-10,1.9-14.8c1.4-4.8,3.4-9.3,6.3-13.5c2.8-4.2,6.4-7.9,10.7-11.1
					c5.2-3.9,10.8-6.8,16.7-8.6c6-1.8,11.9-2.8,17.8-2.9c5.9-0.1,11.6,0.6,17.1,2.1c5.5,1.6,10.3,3.8,14.5,6.7
					c4.2,2.9,7.7,6.5,10.3,10.7c2.7,4.2,4.1,8.9,4.3,14.1c0.1,2-0.3,3.4-1.3,4.4c-1,0.9-2.9,1.8-5.7,2.5c-2.2,0.5-4.3,0.8-6.5,1
					c-2.2,0.1-4.3,0.2-6.5,0.1c-4.5-0.1-7.5-1.6-8.9-4.4c-0.3-0.7-0.7-1.4-1-2.2c-0.3-0.8-0.7-1.6-1.1-2.3c-1.5-2.8-3.5-4.8-6-6
					c-2.5-1.3-5.1-1.9-7.9-1.9c-2.8,0-5.6,0.5-8.4,1.6c-2.8,1.1-5.3,2.6-7.5,4.6c-3.1,2.9-5.3,6.3-6.6,10.5
					c-1.2,4.1-1.7,8.3-1.5,12.5c0.3,4.2,1.2,8.3,2.8,12c1.6,3.8,3.8,6.8,6.5,9.2c2.4,2.1,5,3.4,7.7,4.1c2.8,0.7,5.4,0.7,7.8,0.3
					c2.4-0.5,4.6-1.5,6.4-2.9C659.3,704.4,660.5,702.5,661.2,700.3z"/>
			</g>
		</g>
		<g>
			<g>
				<path class="st0" d="M766.1,709.4c6.3-0.2,9.5,2,9.6,6.6c0.1,2.3,0.1,4.2-0.1,5.8c-0.2,1.6-0.4,3.6-0.6,5.7
					c-0.4,3-2.7,4.6-6.8,4.8c-9.9,0.2-19.2,0.4-28,0.7c-8.8,0.3-17.3,0-25.4-1c-2.4-0.3-4.3-1-5.8-2.3c-1.5-1.3-2.2-2.9-2.4-4.9
					c-0.5-14.2-0.9-27.9-1-41.2c-0.1-13.3-0.2-25.7-0.3-37.3c0-1.8,0.1-3.7,0.2-5.5c0.1-1.9,0.5-3.6,1.1-5.1
					c0.6-1.6,1.6-2.8,2.9-3.8c1.4-1,3.3-1.5,5.9-1.6c2.8-0.1,5.6-0.1,8.4-0.1c2.8,0,5.6,0,8.4-0.1c1.8,0,3.6,0,5.3-0.1
					c1.7-0.1,3.4-0.2,5.1-0.3c3.5-0.2,6.8-0.3,10.2-0.5c3.3-0.2,6.6-0.3,9.8-0.4c2.1,0,4.2,0.4,6.4,1.2c2.2,0.8,3.7,2,4.3,3.6
					c1.8,4.5,2.2,8.9,1.1,13.1c-0.3,1.9-1.3,3.6-2.8,5.1c-1.6,1.5-3.9,2.1-7.1,1.9c-2.8-0.2-5.6-0.3-8.3-0.4
					c-2.7-0.1-5.5-0.2-8.3-0.3c-3.9,0-6.8,0.2-8.6,0.5c-1.8,0.3-3.2,0.7-4,1.4c-0.8,0.7-1.4,1.7-1.6,2.9c-0.3,1.3-0.4,2.9-0.3,4.8
					c0.1,2,0,4.4-0.1,7.2c0,1.5,0.8,2.4,2.4,2.8c1.6,0.4,3.1,0.6,4.6,0.6c2.8,0,5.5,0,8,0c2.5,0,5,0.1,7.5,0.4
					c1.5,0.2,2.8,0.6,3.8,1.3c1,0.7,1.6,1.7,1.7,3.1c0.1,1.7,0.2,3.5,0.4,5.2c0.2,1.7,0.2,3.5,0.1,5.2c-0.2,3.9-2.9,5.8-8.1,5.8
					c-1.3,0-2.6,0-3.9-0.1c-1.3-0.1-2.5-0.2-3.7-0.3c-1.4-0.1-2.8-0.2-4.1-0.2c-1.4,0-2.7,0-4.1,0.1c-1.4,0.1-2.4,0.3-2.9,0.7
					c-0.5,0.4-0.8,1.1-0.8,2.3c0,1.5,0,2.9-0.1,4.4c-0.1,1.4,0,2.9,0.1,4.5c0.1,1.7,0.5,2.9,1.2,3.4c0.7,0.5,2.1,0.8,4.3,0.8
					c4.1,0,7.6,0,10.4-0.1c2.8,0,5.2-0.1,7.1-0.1c1.9,0,3.6-0.1,5-0.2C763.5,709.4,764.8,709.4,766.1,709.4z"/>
			</g>
		</g>
		<g>
			<g>
				<g>
					<path class="st5" d="M814.2,682.7c0.3,6,0.6,11.9,0.9,17.7c0.3,5.8,0.5,11.7,0.7,17.5c0.1,1.6,0.1,3.3,0,4.9
						c-0.1,1.6-0.2,3.2-0.3,4.8c-0.2,2.8-2,4.4-5.4,4.8c-0.8,0.2-1.5,0.3-2.3,0.4c-0.8,0.1-1.5,0.1-2.3,0.1
						c-2.2-0.1-4.3-0.2-6.3-0.2c-2,0-4-0.1-6.1-0.2c-6-0.4-9.1-2.9-9.4-7.5c-0.1-1.6-0.1-3.3,0-4.9c0.1-1.6,0.2-3.2,0.3-4.9
						c0.2-3.3,0.4-6.6,0.6-9.9c0.2-3.3,0.4-6.6,0.6-9.9c0.2-4.9,0.5-9.8,0.7-14.7c0.3-4.9,0.4-9.7,0.4-14.6
						c0.1-4.6,0.1-9.3-0.2-14.2c-0.2-4.9-0.4-9.6-0.7-14.2c-0.2-2.8,0.2-4.7,1.2-5.9c1-1.2,3.3-1.8,6.8-2c5-0.3,10.3,0,16,0.7
						c1.8,0.2,3.4,0.8,4.7,1.8c1.3,1,2.6,2.2,3.7,3.5c1,1,1.9,2.1,2.7,3.2c0.8,1.1,1.7,2.2,2.5,3.4c3.8,6,7.7,12.2,11.6,18.7
						c4,6.5,8.1,12.4,12.5,17.7c0-2.3,0-4.5,0.1-6.9c0.1-2.3,0-4.6-0.1-6.9c0-4.2-0.1-8.8-0.2-13.7c-0.1-4.9-0.2-9.4-0.2-13.6
						c0-4.2,2.7-6.8,8.1-7.5c2.6-0.4,5.2-0.6,7.8-0.6c2.6,0,5.1,0.3,7.6,0.8c2.7,0.4,4.8,1.3,6.2,2.5c1.4,1.2,2.2,2.9,2.4,5.2
						c0.2,2.6,0.4,5.6,0.4,9c0.1,3.4,0.1,6.5,0.1,9.2c0.2,4.4,0.3,8.8,0.3,13.3c0,4.4,0,8.8,0,13.3c0.1,3,0.2,6.1,0.2,9.2
						c0,3.1,0.1,6.2,0.2,9.2c0.1,3.8,0.2,7.6,0.3,11.2c0.1,3.7,0.2,7.4,0.3,11.1c0,1.7-0.3,3.3-0.8,4.8c-0.5,1.5-1.9,2.4-4.1,2.9
						c-3.5,0.9-6.7,1.3-9.7,1.3c-3,0-6.1,0-9.3,0c-2.5,0.2-4.5-0.2-6.2-1c-1.6-0.9-3-2.1-4.1-3.8c-0.5-0.9-1.1-1.7-1.6-2.5
						c-0.5-0.8-1-1.6-1.5-2.4c-1.7-3.6-3.7-7.2-5.9-10.6c-2.2-3.4-4.7-6.7-7.6-9.8c-2.8-3-5.3-6.2-7.5-9.4c-2.2-3.2-4.5-6.4-7.1-9.4
						c-0.2-0.2-0.4-0.3-0.4-0.5c-0.1-0.1-0.2-0.3-0.4-0.5c-0.1,0-0.2,0-0.2,0.1C814.6,682.7,814.4,682.7,814.2,682.7z"/>
				</g>
			</g>
		</g>
		<g>
			<g>
				<path class="st3" d="M952,715.5c-5.1,0.3-10.1,0.5-14.9,0.6c-4.9,0.2-9.8,0.3-14.8,0.5c-0.2,1.5-0.4,2.9-0.7,4.2
					c-0.2,1.3-0.4,2.8-0.5,4.2c-0.2,2.3-1.2,4.1-2.8,5.3c-1.7,1.2-3.8,1.9-6.3,2.3c-5,0.4-9.9,0.4-14.8,0c-2.4-0.2-4.2-0.9-5.4-2.2
					c-1.2-1.3-1.8-2.9-1.8-4.8c-0.1-6.2,0-13.1,0.2-20.7c0.3-7.6,1.1-15.2,2.4-22.7c1.3-7.6,3.3-14.8,6-21.6
					c2.7-6.8,6.5-12.7,11.4-17.4c3.7-3.6,7.9-6.7,12.7-9.1c4.8-2.4,9.9-3.8,15.4-4c4.9-0.3,9.3,0.3,13.3,1.6c4,1.3,7.6,3.2,10.7,5.7
					c3.1,2.5,5.9,5.4,8.2,8.6c2.3,3.3,4.3,6.7,6,10.2c1.7,3.5,3,7,4.1,10.5c1,3.5,1.8,6.6,2.2,9.5c1.2,7.9,1.8,15.7,1.8,23.4
					c0,7.7-0.2,15.5-0.7,23.4c-0.2,2-0.7,3.9-1.5,5.8c-0.8,1.9-2.5,3-5.2,3.3c-2.6,0.2-5.2,0.3-7.9,0.4c-2.7,0.1-5.4,0.1-8.2,0.1
					c-2.8-0.1-4.8-0.6-5.8-1.6c-1.1-1-1.7-2.8-2-5.4c-0.2-1.8-0.4-3.5-0.7-5.1C952.4,718.8,952.2,717.1,952,715.5z M950,693.1
					c0-2.1-0.1-4.5-0.2-7.1c-0.2-2.7-0.5-5.4-0.9-8.2c-1.1-6.6-2.8-11.4-5.3-14.4c-2.4-3-4.8-4.3-7.1-3.9c-1.4,0.3-2.8,1.1-4.1,2.5
					c-1.3,1.4-2.5,3.1-3.7,5.1c-1.1,2-2.1,4.3-3,6.8c-0.9,2.5-1.6,4.9-2.2,7.4c-0.6,2.5-1.1,4.9-1.4,7.1c-0.3,2.3-0.4,4.3-0.3,5.9
					c5-0.2,9.7-0.4,14.3-0.6C940.8,693.5,945.4,693.3,950,693.1z"/>
			</g>
		</g>
		<g>
			<g>
				<g>
					<path class="st5" d="M880.7,712.4c-0.1-3.7-0.2-7.4-0.3-11.2c-0.1-3-0.2-6.1-0.2-9.2c0-3.1-0.1-6.2-0.2-9.2v-13.3
						c0-4.4-0.1-8.8-0.3-13.3c0-2.7,0-5.7-0.1-9.2c-0.1-3.4-0.2-6.4-0.4-9c-0.2-2.2-1-4-2.4-5.2c-1.4-1.2-3.5-2-6.2-2.5
						c-2.5-0.5-5-0.8-7.6-0.8c-2.6,0-5.2,0.2-7.8,0.7c-5.4,0.8-8.1,3.3-8.1,7.5c0,4.2,0.1,8.7,0.2,13.6c0.1,4.9,0.2,9.5,0.2,13.7
						c0.1,2.3,0.1,4.5,0.1,6.9c-0.1,2.3-0.1,4.6-0.1,6.9c-4.4-5.4-8.5-11.3-12.5-17.7c-4-6.4-7.8-12.7-11.6-18.7
						c-0.9-1.2-1.7-2.4-2.5-3.4c-0.8-1.1-1.7-2.2-2.7-3.2c-1.2-1.3-2.4-2.5-3.7-3.5c-1.3-1-2.9-1.6-4.7-1.8c-5.6-0.7-11-0.9-16-0.7
						c-3.5,0.2-5.7,0.8-6.8,2c-1,1.2-1.4,3.1-1.2,5.9c0.2,4.6,0.4,9.3,0.7,14.2c0.2,3.4,0.2,6.7,0.2,10c0,1.4,0,2.9-0.1,4.3
						c0,4.4-0.1,8.8-0.3,13.3c0,0.4,0,0.9-0.1,1.3c-0.3,4.9-0.5,9.7-0.7,14.7c-0.2,3.3-0.4,6.6-0.6,9.9c-0.1,2.6-0.3,5.2-0.4,7.7
						c0,0.7-0.1,1.5-0.1,2.2c-0.1,1.6-0.2,3.3-0.3,4.9c-0.1,1.4-0.1,2.8,0,4.2c0,0.2,0,0.4,0,0.7c0.3,4.6,3.5,7.1,9.4,7.5
						c2.1,0.1,4.1,0.2,6.1,0.2c0.2,0,0.4,0,0.7,0c1.8,0,3.7,0.1,5.6,0.2c0.8,0,1.5,0,2.3-0.1c0.8-0.1,1.5-0.2,2.3-0.4
						c1-0.1,1.8-0.4,2.6-0.7c1.7-0.8,2.7-2.1,2.8-4.1c0.1-1.6,0.2-3.2,0.3-4.8c0.1-1.6,0.1-3.3,0-4.9c0-0.6,0-1.2-0.1-1.8
						c-0.1-2.8-0.2-5.5-0.3-8.2c-0.1-2.5-0.2-5-0.3-7.5c-0.3-5.8-0.6-11.7-0.9-17.7c0.2,0,0.3,0,0.4-0.1s0.1-0.1,0.2-0.1
						c0.2,0.2,0.3,0.3,0.4,0.5c0.1,0.1,0.2,0.3,0.4,0.5c2.6,3,5,6.2,7.1,9.4c2.2,3.2,4.7,6.4,7.5,9.4c2.8,3.1,5.3,6.4,7.6,9.8
						c2.2,3.4,4.2,6.9,5.9,10.6c0.4,0.8,0.9,1.6,1.5,2.4c0.5,0.8,1.1,1.7,1.6,2.5c1.1,1.7,2.4,2.9,4.1,3.8c1.6,0.9,3.7,1.2,6.2,1
						h9.3c3,0,6.3-0.4,9.7-1.3c2.2-0.4,3.5-1.4,4.1-2.9c0.5-1.5,0.8-3.1,0.8-4.8C880.9,719.8,880.8,716.1,880.7,712.4z"/>
				</g>
			</g>
		</g>
		<g>
			<g>
				<path class="st3" d="M982.7,676.1c-0.4-2.9-1.2-6-2.2-9.5c-1-3.5-2.4-7-4.1-10.5c-1.7-3.5-3.7-6.9-6-10.2
					c-2.3-3.3-5.1-6.2-8.2-8.6c-3.1-2.5-6.7-4.4-10.7-5.7c-4-1.3-8.5-1.9-13.3-1.6c-5.5,0.3-10.7,1.6-15.4,4
					c-4.8,2.4-9,5.5-12.7,9.1c-4.9,4.8-8.7,10.6-11.4,17.4c-2.7,6.9-4.7,14.1-6,21.6c-1.3,7.6-2.1,15.2-2.3,22.7
					c-0.3,7.6-0.4,14.5-0.2,20.7c0,1.9,0.6,3.5,1.8,4.8c1.2,1.3,3,2,5.4,2.2c4.9,0.4,9.8,0.4,14.8,0c0.2,0,0.3-0.1,0.5-0.1
					c2.3-0.4,4.2-1.1,5.7-2.2c1.7-1.2,2.6-2.9,2.8-5.3c0-0.5,0.1-1,0.1-1.5c0.1-0.9,0.2-1.8,0.3-2.7c0.2-1.3,0.4-2.7,0.7-4.2
					c5-0.2,9.9-0.3,14.8-0.5h0.1c2.9-0.1,5.9-0.2,8.9-0.4c2-0.1,4-0.2,6-0.3c0.2,1.7,0.4,3.3,0.7,4.9c0.2,1.6,0.4,3.3,0.7,5.1
					c0.2,2.6,0.9,4.4,2,5.4c1.1,1,3,1.5,5.8,1.6c1.2,0,2.4,0,3.6,0c1.6,0,3.1-0.1,4.6-0.1c2.6-0.1,5.3-0.2,7.9-0.4
					c2.7-0.3,4.4-1.4,5.2-3.3c0.7-1.9,1.2-3.8,1.5-5.8c0-0.7,0.1-1.4,0.1-2c0.4-7.2,0.6-14.3,0.6-21.3
					C984.5,691.8,983.9,684,982.7,676.1z M943.1,693.4c-2.3,0.1-4.6,0.2-6.9,0.3c-4.1,0.2-8.4,0.4-12.8,0.5c-0.5,0-1,0-1.5,0.1
					c-0.1-1.7,0-3.6,0.3-5.9c0.3-2.3,0.8-4.7,1.4-7.1c0.6-2.5,1.3-4.9,2.2-7.4c0.9-2.5,1.9-4.7,3-6.8c1.1-2,2.4-3.7,3.7-5.1
					c1.3-1.4,2.6-2.2,4.1-2.5c2.3-0.4,4.6,0.9,7.1,3.9c2.4,3,4.2,7.8,5.3,14.4c0.4,2.8,0.7,5.5,0.9,8.2c0.2,2.7,0.2,5.1,0.2,7.1
					C947.7,693.2,945.4,693.3,943.1,693.4z"/>
			</g>
		</g>
		<g>
			<g>
				<defs>
					<path id="SVGID_5_" d="M661.2,700.3c-2.4,0.2-4.6,0.3-6.7,0.3c-2.1,0-4.1,0.1-6.2,0.3c-4.2,0.3-7.1,0-8.6-0.9
						c-1.5-0.9-2.4-2.8-2.8-5.8c-0.2-3.1-0.2-6.3,0-9.5c0.1-3,2.3-4.7,6.7-5.1c2.7-0.2,5.4-0.3,8-0.4c2.6-0.1,5.2-0.2,7.8-0.4
						c4,0,8,0,12,0c4,0,8.1,0.1,12.2,0.3c4.1,0.1,7,0.8,8.8,2c1.7,1.3,2.7,3.3,2.9,6c1,9.6-1.3,18.9-6.8,27.8
						c-2.4,3.9-5.4,7.2-9.2,9.8c-3.7,2.6-7.8,4.7-12.3,6.1c-4.4,1.4-9.1,2.3-14.1,2.5c-4.9,0.3-9.7,0-14.5-0.9
						c-4.7-0.9-9.2-2.2-13.5-4.1c-4.3-1.9-8-4.2-11.3-7.1c-3.9-3.5-7.2-7.4-10-11.9c-2.8-4.5-4.8-9.1-6.3-14
						c-1.4-4.9-2.1-9.9-2.2-14.9c-0.1-5.1,0.6-10,1.9-14.8c1.4-4.8,3.4-9.3,6.3-13.5c2.8-4.2,6.4-7.9,10.7-11.1
						c5.2-3.9,10.8-6.8,16.7-8.6c6-1.8,11.9-2.8,17.8-2.9c5.9-0.1,11.6,0.6,17.1,2.1c5.5,1.6,10.3,3.8,14.5,6.7
						c4.2,2.9,7.7,6.5,10.3,10.7c2.7,4.2,4.1,8.9,4.3,14.1c0.1,2-0.3,3.4-1.3,4.4c-1,0.9-2.9,1.8-5.7,2.5c-2.2,0.5-4.3,0.8-6.5,1
						c-2.2,0.1-4.3,0.2-6.5,0.1c-4.5-0.1-7.5-1.6-8.9-4.4c-0.3-0.7-0.7-1.4-1-2.2c-0.3-0.8-0.7-1.6-1.1-2.3c-1.5-2.8-3.5-4.8-6-6
						c-2.5-1.3-5.1-1.9-7.9-1.9c-2.8,0-5.6,0.5-8.4,1.6c-2.8,1.1-5.3,2.6-7.5,4.6c-3.1,2.9-5.3,6.3-6.6,10.5
						c-1.2,4.1-1.7,8.3-1.5,12.5c0.3,4.2,1.2,8.3,2.8,12c1.6,3.8,3.8,6.8,6.5,9.2c2.4,2.1,5,3.4,7.7,4.1c2.8,0.7,5.4,0.7,7.8,0.3
						c2.4-0.5,4.6-1.5,6.4-2.9C659.3,704.4,660.5,702.5,661.2,700.3z"/>
				</defs>
				<clipPath id="SVGID_2_">
					<use xlink:href="#SVGID_5_"  style="overflow:visible;"/>
				</clipPath>
				<g class="st6">
					<g>
						<circle class="st0" cx="596.5" cy="693.6" r="11.4"/>
					</g>
					<g>
						<circle class="st0" cx="625.3" cy="670.1" r="9.9"/>
					</g>
					<g>
						<circle class="st0" cx="669.8" cy="728.1" r="4.5"/>
					</g>
					<g>
						<circle class="st0" cx="602.8" cy="671.3" r="4.5"/>
					</g>
					<g>
						<circle class="st0" cx="624.3" cy="723.2" r="8.9"/>
					</g>
					<g>
						<circle class="st0" cx="625.9" cy="698.4" r="6.5"/>
					</g>
					<g>
						<circle class="st0" cx="650.5" cy="719.8" r="7.5"/>
					</g>
				</g>
			</g>
			<g>
				<g>
					<path class="st7" d="M114.5,677.5c-3-2.2-5.9-4.5-8.5-7.1c-3-3.5-4.8-7.1-5.4-10.9c1.1-1,2.4-1.8,3.9-2.4
						c5.9-2.1,12.5,1,14.6,6.9C121,669.1,119,674.7,114.5,677.5z"/>
				</g>
				<g>
					<path class="st7" d="M118.5,647.1c-5,1.8-10.6-0.8-12.5-5.7c1.2-1.4,2.6-2.7,4.2-4c3.4-2.7,7.6-4.7,12.5-6
						c0.8,0.9,1.4,1.9,1.8,3.1C126.3,639.6,123.7,645.2,118.5,647.1z"/>
				</g>
				<g>
					<path class="st7" d="M148,629.2c-0.7,2.5-2.6,4.5-5.2,5.5c-4.3,1.5-9.1-0.7-10.6-5c0,0,0,0,0-0.1c3-0.4,6-0.6,8.9-0.7
						C143.5,628.9,145.8,629,148,629.2z"/>
				</g>
				<g>
					<circle class="st7" cx="106.1" cy="704.9" r="4.5"/>
				</g>
				<g>
					<path class="st7" d="M133.2,654.9c-0.7,1.1-1.1,2.3-1.1,3.5c0,0.9,0.2,1.9,0.5,2.8v0c-0.2,0.1-0.3,0.1-0.5,0.2
						c-2.3,0.8-4.9-0.4-5.8-2.7c-0.8-2.4,0.4-4.9,2.7-5.8c1.7-0.6,3.6-0.1,4.7,1.1C133.7,654.3,133.4,654.6,133.2,654.9z"/>
				</g>
				<g>
					<path class="st7" d="M131.7,717.1c-4.7,1.7-9.8-0.8-11.4-5.4c-1.7-4.7,0.8-9.8,5.4-11.4c0.4-0.1,0.7-0.2,1.1-0.3
						c1.2,2,2.9,3.7,5.2,5c1.9,1.1,3.7,1.8,5.6,2.3C138.2,711.4,135.8,715.6,131.7,717.1z"/>
				</g>
				<g>
					<path class="st7" d="M166.1,726.2c-4.2,2.7-8.6,4.6-13.4,5.6c-1,0.2-2.1,0.4-3.1,0.6c-0.9-4.3,1.5-8.7,5.8-10.2
						C159.5,720.7,164,722.5,166.1,726.2z"/>
				</g>
				<g>
					<path class="st7" d="M134.2,688.4c-2.1-1.2-4.3-2.3-6.5-3.3c-1.2-0.6-2.4-1.1-3.5-1.7c-0.2-2.8,1.5-5.5,4.3-6.5
						c3.4-1.2,7.1,0.6,8.3,3.9C137.7,683.7,136.6,686.8,134.2,688.4z"/>
				</g>
				<g>
					<path class="st7" d="M131.4,731.7L131.4,731.7c-4.3-0.8-8.2-2-11.9-3.6c0-2.7,1.7-5.2,4.3-6.1c3.4-1.2,7.1,0.6,8.3,3.9
						C132.8,727.9,132.5,730.1,131.4,731.7z"/>
				</g>
			</g>
			<g>
				<g>
					<path class="st7" d="M566.6,727c-0.7,1.1-1.6,2-2.6,2.8c-0.1,0.1-0.3,0.2-0.4,0.3l0,0c-5.2,0.7-10.4-2.3-12.3-7.5
						c-1.7-4.8,0-9.9,3.8-12.9c0.4,0.9,0.9,1.9,1.4,2.7c1.3,2.1,2.9,4.2,4.9,6.1c0.8,0.8,1.6,1.5,2.4,2.3c0.8,0.8,1.6,1.5,2.4,2.2
						C567.3,724.2,567.5,725.5,566.6,727z"/>
				</g>
				<g>
					<path class="st7" d="M511.9,696.1c-0.3,0.4-0.6,0.7-0.9,1.1c-1.2,1.6-1.8,3.2-1.9,5c-1,1-2.3,1.9-3.7,2.4
						c-5,1.8-10.4-0.7-12.4-5.5c0.6-1.2,1.2-2.4,1.9-3.6c1.3-2.2,3-4.2,5.1-6c1.4-1.2,2.9-2.5,4.5-3.6c3.1,0.8,5.7,3,6.8,6.2
						C511.8,693.4,512,694.7,511.9,696.1z"/>
				</g>
				<g>
					<path class="st7" d="M535.3,657.2c-1.1,2-3,3.7-5.3,4.5c-5.1,1.8-10.8-0.8-12.6-6c0-0.1-0.1-0.2-0.1-0.2c0.5-0.1,1-0.1,1.5-0.2
						c1.9-0.1,3.8-0.1,5.7,0.2C528.2,655.8,531.8,656.4,535.3,657.2z"/>
				</g>
				<g>
					<circle class="st7" cx="503.4" cy="716.6" r="4.5"/>
				</g>
				<g>
					<circle class="st7" cx="513.1" cy="668.4" r="4.5"/>
				</g>
				<g>
					<path class="st7" d="M526.7,732.1L526.7,732.1c-0.7,0-1.4,0-2.1-0.1c-1.6-0.1-3.2-0.2-4.9-0.3c-1.7-0.1-3.4-0.4-5.2-0.8
						c-0.8-3.2,0.9-6.6,4.1-7.7c3.4-1.2,7.1,0.6,8.3,3.9C527.6,728.8,527.4,730.6,526.7,732.1z"/>
				</g>
			</g>
			<g>
				<g>
					<path class="st0" d="M196.1,694.3c-1.6,0.6-3.2,0.8-4.7,0.6c0-6,0.1-12.1,0.2-18.3c0-1.5,0.1-3,0.1-4.5
						c4.9-0.3,9.7,2.7,11.4,7.6C205.1,685.7,202,692.2,196.1,694.3z"/>
				</g>
				<g>
					<path class="st0" d="M224.8,653.4v19c-4.9,1.4-10.2-1.3-11.9-6.2c-1.8-5.1,0.8-10.8,6-12.6
						C220.8,652.9,222.9,652.8,224.8,653.4z"/>
				</g>
				<g>
					<circle class="st0" cx="198.5" cy="712.2" r="4.5"/>
				</g>
				<g>
					<circle class="st0" cx="200.4" cy="662.4" r="4.5"/>
				</g>
				<g>
					<path class="st0" d="M224.8,705.6c0,1.5,0,2.8,0,4.1c-0.1,4-0.1,7.7-0.1,10.9v0.3c-0.5,0.3-1.1,0.6-1.6,0.8
						c-4.7,1.7-9.8-0.8-11.4-5.4c-1.7-4.7,0.8-9.8,5.4-11.4C219.7,703.8,222.5,704.2,224.8,705.6z"/>
				</g>
				<g>
					<circle class="st0" cx="215.6" cy="690.6" r="6.5"/>
				</g>
				<g>
					<path class="st0" d="M213.3,732.3c-1.1,0.1-2.2,0.1-3.3,0.2c-1.5,0.1-3,0.1-4.4,0.1c-1.4,0-2.6,0-3.6-0.1
						c-0.6,0-1.2-0.1-1.7-0.1c0.1-2.5,1.8-4.9,4.3-5.8c3.4-1.2,7.1,0.6,8.3,3.9C213.2,731.1,213.3,731.7,213.3,732.3z"/>
				</g>
			</g>
			<g>
				<g>
					<path class="st7" d="M714.9,697.4c-3.1,1.1-6.4,0.8-9.1-0.6c-0.1-4.5-0.2-8.8-0.2-13.2c0-2.3,0-4.7-0.1-7
						c0.5-0.3,1.1-0.5,1.7-0.7c5.9-2.1,12.5,1,14.6,6.9C724,688.8,720.9,695.3,714.9,697.4z"/>
				</g>
				<g>
					<path class="st7" d="M710.1,662.5c-1.5,0.5-3.1,0.7-4.6,0.5c-0.1-5.7-0.1-11.3-0.2-16.6c0-0.9,0-1.9,0-2.9
						c4.5-0.7,9.1,1.9,10.7,6.4C717.9,655,715.3,660.7,710.1,662.5z"/>
				</g>
				<g>
					<circle class="st7" cx="715.1" cy="713.5" r="4.5"/>
				</g>
				<g>
					<path class="st7" d="M736.8,673c-0.5,1.1-1.4,1.9-2.6,2.3c-2.4,0.8-4.9-0.4-5.8-2.7c-0.8-2.3,0.4-4.9,2.7-5.8
						c0.8-0.3,1.6-0.3,2.4-0.2c0,1,0,2.1-0.1,3.3c0,1.5,0.8,2.4,2.4,2.8C736.1,672.9,736.5,672.9,736.8,673z"/>
				</g>
				<g>
					<circle class="st7" cx="736.6" cy="720.1" r="8.9"/>
				</g>
				<g>
					<path class="st7" d="M741.2,693.8c-1.1,0-2.2,0-3.3,0.1c-1.4,0.1-2.4,0.3-2.9,0.7c-0.5,0.4-0.8,1.2-0.8,2.3c0,0.9,0,1.8,0,2.7
						c-2.4-0.2-4.6-1.8-5.5-4.3c-1.2-3.4,0.6-7.1,3.9-8.3c3.4-1.2,7.1,0.6,8.3,3.9C741.1,691.9,741.3,692.9,741.2,693.8z"/>
				</g>
				<g>
					<path class="st7" d="M724.5,732.9c-3.3-0.2-6.5-0.4-9.7-0.8c-1.2-0.1-2.2-0.4-3.1-0.7c0.4-2.2,2-4,4.2-4.8
						c3.4-1.2,7.1,0.6,8.3,3.9C724.4,731.3,724.5,732.1,724.5,732.9z"/>
				</g>
			</g>
			<g>
				<g>
					<path class="st7" d="M452.6,702.5c-1.8,4.2-4.2,8.2-7.2,12c-0.5,0.7-1.1,1.4-1.6,2c-5.5,1.1-11-2-13-7.4
						c-2.1-5.9,1-12.5,6.9-14.6c5.9-2.1,12.5,1,14.6,6.9C452.4,701.9,452.5,702.2,452.6,702.5z"/>
				</g>
				<g>
					<circle class="st7" cx="377.5" cy="683.7" r="9.9"/>
				</g>
				<g>
					<circle class="st7" cx="374.7" cy="705.4" r="4.5"/>
				</g>
				<g>
					<circle class="st7" cx="447.9" cy="684" r="4.5"/>
				</g>
				<g>
					<circle class="st7" cx="392.7" cy="715.9" r="6.5"/>
				</g>
			</g>
			<g>
				<g>
					<circle class="st3" cx="860.2" cy="708.9" r="11.4"/>
				</g>
				<g>
					<path class="st3" d="M792.4,680.5c-2.3,0.4-4.5,0-6.3-1.1c0.2-4.4,0.3-8.8,0.3-13.3c0-1.4,0.1-2.8,0.1-4.3
						c0.8-0.4,1.7-0.7,2.6-0.8c5.4-0.9,10.4,2.7,11.4,8.1C801.4,674.6,797.8,679.6,792.4,680.5z"/>
				</g>
				<g>
					<path class="st3" d="M789.3,725.9c-2,0.3-4-0.2-5.5-1.4c-0.1-1.4-0.1-2.8,0-4.2c0.1-1.6,0.2-3.2,0.3-4.9c0-0.7,0.1-1.5,0.1-2.2
						c0.8-0.5,1.7-0.9,2.7-1.1c3.8-0.7,7.4,1.9,8.1,5.7C795.7,721.6,793.1,725.2,789.3,725.9z"/>
				</g>
				<g>
					<circle class="st3" cx="794.3" cy="694.1" r="4.5"/>
				</g>
				<g>
					<circle class="st3" cx="858.6" cy="686.4" r="4.5"/>
				</g>
				<g>
					<path class="st3" d="M815.8,716.1c-1,1.3-2.4,2.2-4.1,2.5c-3.5,0.6-6.9-1.8-7.5-5.3c-0.6-3.5,1.8-6.9,5.3-7.5
						c2.3-0.4,4.5,0.5,5.9,2.1C815.6,710.6,815.7,713.4,815.8,716.1z"/>
				</g>
				<g>
					<circle class="st3" cx="838.5" cy="693.1" r="6.5"/>
				</g>
				<g>
					<path class="st3" d="M812.7,731.8c-0.7,0.3-1.6,0.6-2.6,0.7c-0.8,0.2-1.5,0.3-2.3,0.4c-0.8,0.1-1.5,0.1-2.3,0.1
						c-1.9-0.1-3.8-0.1-5.6-0.2c0.3-2.8,2.4-5.2,5.4-5.7C808.7,726.6,811.8,728.6,812.7,731.8z"/>
				</g>
			</g>
			<g>
				<g>
					<path class="st7" d="M983.9,720.8c0,0.7-0.1,1.4-0.1,2c-0.2,2-0.7,3.9-1.5,5.8c-0.8,1.9-2.5,3-5.2,3.3
						c-2.6,0.2-5.2,0.3-7.9,0.4c-1.5,0.1-3,0.1-4.6,0.1c-0.9-1-1.6-2.2-2.1-3.6c-2.1-5.9,1-12.5,6.9-14.6
						C975.3,712.2,981.7,715.1,983.9,720.8z"/>
				</g>
				<g>
					<circle class="st7" cx="906.1" cy="699.3" r="9.9"/>
				</g>
				<g>
					<path class="st7" d="M936.6,703.4c-5.1,1.8-10.8-0.8-12.6-6c-0.4-1.1-0.6-2.2-0.6-3.2c4.5-0.2,8.7-0.3,12.8-0.5
						c2.3-0.1,4.6-0.2,6.9-0.3C943.4,697.7,940.9,701.9,936.6,703.4z"/>
				</g>
				<g>
					<circle class="st7" cx="900" cy="719.6" r="5.4"/>
				</g>
				<g>
					<path class="st7" d="M946,715.8c-3,0.1-6,0.3-8.9,0.4c-0.5-2.2,0.7-4.4,2.9-5.2c2.3-0.8,4.9,0.4,5.8,2.7
						C946,714.4,946.1,715.1,946,715.8z"/>
				</g>
				<g>
					<circle class="st7" cx="969.8" cy="697.3" r="4.5"/>
				</g>
				<g>
					<path class="st7" d="M921.2,723.6c-0.1,0.5-0.1,1-0.1,1.5c-0.2,2.3-1.2,4.1-2.8,5.3c-1.6,1.1-3.5,1.8-5.7,2.2
						c-0.2-0.3-0.4-0.7-0.5-1.1c-1.2-3.4,0.6-7.1,3.9-8.3C917.7,722.5,919.7,722.7,921.2,723.6z"/>
				</g>
			</g>
			<g>
				<g>
					<path class="st4" d="M294.5,709.6c-1.1-0.1-2.2-0.1-3.3,0c-1.7,0.1-3.4,0.1-5.1,0.1c-1.8-0.1-3.4-0.5-4.5-1.2
						c-1.2-0.7-2.2-1.7-3.1-2.9c-0.7-1-1.3-2-1.9-3c1.1-1.9,2.9-3.4,5.1-4.2c5.1-1.8,10.7,0.8,12.5,5.9
						C294.8,706.1,294.8,707.9,294.5,709.6z"/>
				</g>
				<g>
					<path class="st4" d="M242.3,690.3c-2.4,0.9-5,0.7-7.2-0.2c0-6.1,0-12.1-0.1-18.1c0.2-0.1,0.4-0.2,0.6-0.2
						c5.1-1.8,10.8,0.8,12.6,6C250.1,682.9,247.5,688.5,242.3,690.3z"/>
				</g>
				<g>
					<path class="st4" d="M350.1,704c-4.8,1.2-9.9-1.5-11.6-6.3c-1.8-5.1,0.8-10.8,6-12.6c1.8-0.7,3.7-0.7,5.4-0.3
						c0,1.5,0,2.9,0,4.4c0,2.7,0,5.6,0.1,8.7C350,700,350,702,350.1,704z"/>
				</g>
				<g>
					<path class="st4" d="M246.9,732.7c-1.5-0.1-3-0.2-4.5-0.3c-2.5-0.3-4.4-1.2-5.8-2.6c-1-1-1.7-2.2-1.9-3.7
						c0.8-1.6,2.1-2.9,4-3.6c3.6-1.3,7.7,0.6,8.9,4.2C248.2,728.8,247.9,731,246.9,732.7z"/>
				</g>
				<g>
					<circle class="st4" cx="243.5" cy="704.4" r="4.5"/>
				</g>
				<g>
					<circle class="st4" cx="281" cy="682.2" r="4.5"/>
				</g>
				<g>
					<path class="st4" d="M349.1,730.6c-1,0.9-3.1,1.5-6.3,1.7c-0.7,0.1-1.4,0.1-2,0.2c-0.8-0.8-1.4-1.9-1.8-3
						c-1.7-4.7,0.8-9.8,5.4-11.4c2-0.7,4.1-0.7,6,0c0,2.6,0.1,5.1,0.1,7.4C350.5,728,350,729.7,349.1,730.6z"/>
				</g>
				<g>
					<circle class="st4" cx="258.8" cy="719.2" r="6.5"/>
				</g>
				<g>
					<circle class="st4" cx="303.2" cy="690" r="6.5"/>
				</g>
				<g>
					<circle class="st4" cx="332.3" cy="710" r="6.5"/>
				</g>
				<g>
					<path class="st4" d="M266.9,692.5v12.3c-3.3,1.1-7-0.6-8.2-4c-1.2-3.4,0.6-7.1,3.9-8.3C264.1,692.1,265.5,692.1,266.9,692.5z"
						/>
				</g>
			</g>
		</g>
	</g>
</g>
</svg>
